<svg id="Layer_1" data-name="Layer 1" xmlns="http://www.w3.org/2000/svg" viewBox="0 0 307.83 69.19"><path d="M211.88,34.57q0,14.85,0,29.69a8.19,8.19,0,0,1-.24,2.66c-.5,1.44-1.9,2.3-3.92,2.27s-3.41-.88-3.82-2.37a9.87,9.87,0,0,1-.21-2.66q0-29.41,0-58.84c0-3.8,1.11-5.24,4-5.32s4.17,1.43,4.17,5.42Z" fill="#fe6723"/><path d="M128.15,34.79V58.57a14.87,14.87,0,0,1-.08,2.67c-.34,1.79-1.69,3.05-4.21,3S120.12,63,120,61.11c-.49-9.06-.15-18.13-.11-27.19,0-8-.09-16-.2-24a5.83,5.83,0,0,1,.45-3.16,3.94,3.94,0,0,1,3.54-1.94c1.87-.05,3.3.68,3.83,2a9.1,9.1,0,0,1,.59,3.42C128.17,18.41,128.15,26.6,128.15,34.79Z" fill="#fe6723"/><path d="M104.09,34.83c0,6.87,0,13.74,0,20.61a9.5,9.5,0,0,1-.25,2.66c-.43,1.46-1.69,2.39-3.78,2.36s-3.43-.88-3.89-2.32a9.26,9.26,0,0,1-.27-2.92q0-20.61,0-41.22c0-.45,0-.9,0-1.34,0-2.06.7-3.9,4-3.88s4.15,1.72,4.15,3.84Q104.08,23.72,104.09,34.83Z" fill="#fe6723"/><path d="M152,34.54c0,6.87,0,13.74,0,20.61a9.18,9.18,0,0,1-.19,2.67c-.45,1.47-1.9,2.29-3.88,2.33a3.66,3.66,0,0,1-3.76-2.07,7.93,7.93,0,0,1-.37-2.91q0-20.47,0-40.95c0-3.59,1.38-5.34,4.13-5.33S152,10.52,152,14.2q0,10.17,0,20.34Z" fill="#fe6723"/><path d="M200,34.84c0,6.87,0,13.73,0,20.6,0,2.17-.61,4.17-4.05,4.17s-4.14-2-4.15-4.18q0-20.86,0-41.74c0-2.18.84-4,4.18-4.2,2.49-.18,4,1.45,4,4.21,0,7.05,0,14.09,0,21.14Z" fill="#fe6723"/><path d="M259.74,34.57c0,6.42,0,12.85,0,19.27,0,2.13-.42,4-3.92,4.28-2.61.18-4.25-1.52-4.26-4.39,0-12.76,0-25.52,0-38.28a7,7,0,0,1,0-.8c.26-2,1.23-3.67,4.21-3.6s4,1.67,4,3.71Q259.73,24.66,259.74,34.57Z" fill="#fe6723"/><path d="M275.36,34.53c0-6.24,0-12.49,0-18.73,0-2,.53-3.85,3.79-4.11a3.78,3.78,0,0,1,4.39,4c.06,12.58,0,25.16,0,37.74,0,2.05-.82,3.94-4.05,3.94-3.42,0-4.13-1.9-4.11-4.11.06-6.25,0-12.49,0-18.74Z" fill="#fe6723"/><path d="M155.67,34.4c0-6.06,0-12.12,0-18.18,0-3,1.32-4.4,4.12-4.37s4.07,1.43,4.07,4.47c0,12.12,0,24.23,0,36.35a9.49,9.49,0,0,1,0,1.07c-.19,2-1.35,3.5-4.36,3.41s-3.78-1.62-3.79-3.51c0-6.41,0-12.83,0-19.24Z" fill="#fe6723"/><path d="M36.28,34.4V19.69c0-.72,0-1.43,0-2.14.21-2,1.63-3.25,4.32-3.2s3.78,1.44,3.79,3.26q.06,16.86,0,33.72c0,2.06-1.44,3.54-4.33,3.46-2.73-.07-3.81-1.59-3.81-3.53q0-8.43,0-16.86Z" fill="#fe6723"/><path d="M20.22,30.64a115.37,115.37,0,0,0,.44,15.21,8.52,8.52,0,0,1-.2,2.66c-.37,1.66-1.57,2.86-4,2.9-2.63,0-3.78-1.26-4.21-3a7.18,7.18,0,0,1-.16-1.6q0-12.28,0-24.59a5.84,5.84,0,0,1,.27-1.85,3.85,3.85,0,0,1,4.25-2.67c2.41.11,3.57,1.35,3.6,3.08C20.26,24.06,20.22,27.35,20.22,30.64Z" fill="#fe6723"/><path d="M215.61,34.36c0-3.57,0-7.14,0-10.7,0-2,.78-3.63,3.9-3.67s4.25,1.47,4.26,3.49q.06,11.23-.07,22.47c0,1.92-1.3,3.34-4.12,3.31s-3.94-1.47-4-3.4c-.06-3.83,0-7.67,0-11.5Z" fill="#fe6723"/><path d="M107.81,34.29c0-3,0-6.05,0-9.08,0-2,.92-3.59,4-3.6,2.81,0,4.08,1.45,4.11,3.34.09,6.41.11,12.82,0,19.23,0,2-1.56,3.44-4.5,3.32s-3.63-1.7-3.62-3.59c0-3.21,0-6.41,0-9.62Z" fill="#fe6723"/><path d="M167.62,34.38c0-3,0-6.06,0-9.1,0-1.86.75-3.48,3.64-3.6s4.38,1.45,4.42,3.41q.19,9.5,0,19c0,1.83-1.33,3.4-4.15,3.34-3-.07-4-1.61-3.93-3.68,0-3.12,0-6.24,0-9.36Z" fill="#fe6723"/><path d="M140,34.64c0,2.4,0,4.8,0,7.19,0,1.83-1.2,3.21-3.7,3.32-2.7.12-4.28-1.25-4.34-3.15q-.24-7.45,0-14.91c.06-1.74,1.48-3.11,4.09-3S140,25.47,140,27.45Z" fill="#fe6723"/><path d="M92.15,34.44c0,1.87.09,3.74,0,5.61s-1.44,3.09-4,3.1c-2.41,0-3.84-1.23-3.93-2.89a107,107,0,0,1-.06-11.47c.08-1.65,1.62-2.86,4-2.83,2.58,0,3.84,1.31,4,3.14s0,3.56,0,5.34Z" fill="#fe6723"/><path d="M271.64,34.65c0,1.69.05,3.38,0,5.07-.08,1.92-1.24,3.39-4,3.42s-4.07-1.35-4.12-3.31c-.08-3.47-.09-6.94,0-10.41.05-1.9,1.24-3.42,4-3.42,2.92,0,4.12,1.52,4.15,3.58C271.67,31.27,271.64,33,271.64,34.65Z" fill="#fe6723"/><path d="M32.56,34.63c0,1.7,0,3.39,0,5.09S31.35,42.91,28.8,43c-2.79.12-4.21-1.29-4.29-3.19-.17-3.56-.15-7.14,0-10.7.09-1.8,1.55-3.11,4.1-3.07s3.79,1.37,3.88,3.21,0,3.57,0,5.35Z" fill="#fe6723"/><path d="M48.19,34.59c0-1.78-.07-3.56,0-5.33s1.58-3,4.07-3.05,3.8,1.22,3.89,2.89a101.81,101.81,0,0,1,0,10.91c-.11,1.76-1.62,3.07-4.22,2.92s-3.72-1.44-3.77-3.28C48.15,38,48.19,36.27,48.19,34.59Z" fill="#fe6723"/><path d="M295.94,34.3c-.14,1.89-.16,3.67-.43,5.43s-1.67,2.78-4,2.78c-2.19,0-3.54-1-3.88-2.6-.81-3.72.11-7.43.35-11.13.08-1.34,1.7-2.15,3.56-2.15,2.18,0,3.7.92,4,2.49A37.25,37.25,0,0,1,295.94,34.3Z" fill="#fe6723"/><path d="M235.64,34.76c0,1.52.12,3,0,4.55-.2,1.94-1.63,3.25-4.34,3.18s-3.75-1.42-3.77-3.25c0-3.12,0-6.24.08-9.36,0-1.87,1.29-3.17,3.82-3.23s3.95,1.23,4.15,3a45.12,45.12,0,0,1,0,5.07Z" fill="#fe6723"/><path d="M0,34.52c0-1.33,0-2.67,0-4,0-1.78,1.21-2.93,3.54-3.13s4,.86,4.31,2.52a23.16,23.16,0,0,1,0,9.56C7.56,41.05,6,42,3.81,41.85S.29,40.71.15,39.06s0-3,0-4.54Z" fill="#fe6723"/><path d="M179.66,34.51a16.65,16.65,0,0,1,0-1.87c.24-2.06,1.32-3.81,4.48-3.63s3.93,2,3.91,4.06c0,1.33-.25,2.65-.36,4-.14,1.74-1.21,2.89-3.66,3s-3.78-.94-4.22-2.62a18.94,18.94,0,0,1-.34-2.91Z" fill="#fe6723"/><path d="M307.79,34.35a23.86,23.86,0,0,1,0,2.93c-.19,1.6-1.29,2.67-3.58,2.76s-3.95-.88-4.27-2.55a18.84,18.84,0,0,1-.17-5.3c.18-1.88,1.52-3.24,4.31-3.16s3.77,1.54,3.76,3.46v1.86Z" fill="#fe6723"/><path d="M60.23,34.35a21.57,21.57,0,0,1,.2-2.4c.3-1.61,1.57-2.67,3.77-2.68s3.68.91,4,2.53a19.64,19.64,0,0,1,.25,4.53c-.09,2-1.34,3.56-4.27,3.53s-4-1.68-4.12-3.65a10.63,10.63,0,0,1,.12-1.86Z" fill="#fe6723"/><path d="M247.62,34.75a24,24,0,0,1-.2,2.4c-.28,1.62-1.56,2.67-3.74,2.72s-3.68-.92-4-2.51a18.54,18.54,0,0,1-.26-4.52c.09-2,1.31-3.58,4.23-3.57s4,1.65,4.17,3.62a11.62,11.62,0,0,1-.12,1.86Z" fill="#fe6723"/><path d="M80.29,34.54c0,2.05-.63,3.78-4,3.87a3.78,3.78,0,0,1-4.16-4.13c.16-2,1.15-3.48,4.16-3.58C79,30.62,80.37,32,80.29,34.54Z" fill="#fe6723"/></svg>