<svg xmlns="http://www.w3.org/2000/svg" xmlnsXlink="http://www.w3.org/1999/xlink" x="0px" y="0px"
                            viewBox="0 0 383.5 383.7" enableBackground="new 0 0 383.5 383.7" xmlSpace="preserve">
                        <g>
                            <path fill="#121212" d="M190.7,108c46.6,0,84.6,33.5,90.3,78.6c5.4,43.2-19.9,83.5-61.3,97.1c-2.9,1-5,2.4-6.7,4.9
                                c-4.5,6.6-9.2,13-13.9,19.5c-4.7,6.5-10.4,6.4-15.1-0.1c-4.7-6.6-9.5-13.1-14.1-19.8c-1.5-2.2-3.3-3.5-5.8-4.4
                                c-33.5-11.8-54.3-35-61.1-69.9c-9.3-47.8,23.1-95.2,70.9-104.4C179.7,108.5,185.7,107.7,190.7,108z M266.1,198.7
                                c-0.3-3.9-0.3-7.1-0.7-10.3c-5.2-40.7-43.3-69.8-84.1-64c-40.6,5.7-68.8,43-63.5,83.9c3.8,29,25.4,53.8,53.7,61.4
                                c3.9,1,6.7,3,8.9,6.2c2.9,4.3,6.1,8.5,9.1,12.8c1.5,2.2,2.7,2.1,4.2-0.1c2.8-4,5.8-7.9,8.4-11.9c2.4-3.7,5.6-6,10-7.2
                                C241.9,261.1,265.5,234.3,266.1,198.7z"/>
                            <path fill="#FE6723" d="M191.6,175.1c-9.8,0-19.7,0-29.5,0c-5.5,0-9-3-9.2-7.7c-0.1-4.6,3.2-8.1,8.8-8.1c19.9-0.1,39.9-0.1,59.8,0
                                c5.6,0,8.9,3.5,8.8,8.1c-0.2,4.7-3.6,7.7-9.2,7.7C211.3,175.1,201.5,175.1,191.6,175.1z"/>
                            <path fill="#FE6723" d="M191.5,205.8c-9.8,0-19.7,0-29.5,0c-5.4,0-9.1-3.2-9-7.8c0-4.6,3.7-7.7,9.2-7.7c19.7,0,39.4,0,59.1,0
                                c5.6,0,9.2,3,9.2,7.6c0,4.8-3.5,7.9-9.3,7.9C211.2,205.9,201.3,205.8,191.5,205.8z"/>
                            <path fill="#FE6723" d="M176.2,237.1c-4.4,0-8.7,0-13.1,0c-2,0-4-0.2-5.8-1.1c-3.2-1.4-4.9-4.8-4.3-8.3c0.7-3.8,3.5-6.5,7.5-6.5
                                c10.3-0.1,20.7-0.2,31,0c4.6,0.1,7.6,3.2,7.8,7.4c0.1,4.2-2.5,7.8-7.1,8.1c-5.3,0.4-10.7,0.1-16,0.1
                                C176.2,236.9,176.2,237,176.2,237.1z"/>
                            <path fill="none" d="M48.9,235.5c0,14.8,0.1,29.7-0.1,44.5c0,2.9,0.8,4.1,3.8,3.9c3.5-0.2,7-0.2,10.5,0c3.2,0.2,4-1,4-4.1
                                c-0.1-14.3-0.1-28.7-0.1-43c0-15.3-0.1-30.7,0-46c0-2.7-0.8-3.9-3.6-3.7c-3.5,0.2-7,0.2-10.5,0c-3.4-0.3-4.2,1-4.2,4.3
                                C49,206.1,48.9,220.8,48.9,235.5z"/>
                            <path fill="none" d="M174.2,368.5c5.7,0.1,11.5,0,17.2,0c6,0,12,0.1,18,0c6.8-0.1,11.9-5,11.9-11c-0.1-6-5.2-10.8-12-10.9
                                c-11.7-0.1-23.4-0.1-35.2,0c-6.9,0.1-11.9,4.8-12.1,10.8C161.9,363.5,167.2,368.4,174.2,368.5z"/>
                            <path fill="none" d="M29.8,190c-9.7,5.1-14.4,13.3-14.5,23.9c-0.2,14.4-0.2,28.9,0,43.3c0.2,10.7,4.9,18.8,14.6,23.9
                                c2.8,1.5,3.6,0.9,3.6-2.3c-0.1-14.4,0-28.9,0-43.3c0-14.4-0.1-28.9,0.1-43.3C33.5,188.8,32.5,188.6,29.8,190z"/>
                            <path fill="none" d="M183.7,16.3c-22.9,0.9-44.1,7.6-63.8,19c-18.2,10.6-33.2,24.6-45.3,41.8c-1.6,2.3-1.9,3.6,0.9,5.2
                                c9.1,5.3,13.3,4.6,20.3-3.5c25.1-29.4,57.1-44.1,85.9-44.9c47.3,0,82.1,16.2,106,45.1c6.5,7.9,10.9,8.6,19.7,3.6
                                c3-1.7,3.2-3,1.2-5.7C277.5,34.9,236.1,14.2,183.7,16.3z"/>
                            <path fill="none" d="M353.6,190.1c-3.4-1.8-3.7-1.6-3.8,2.2c0,14.3,0,28.6,0,43c0,14.6,0,29.1,0,43.7c0,2.9,0.7,3.6,3.4,2.2
                                c9.7-5,14.5-13.1,14.8-23.8c0.3-14.6,0.3-29.1,0-43.7C367.8,203.2,363.1,195.1,353.6,190.1z"/>
                            <path fill="none" d="M334.3,232c0-13.7-0.1-27.4,0-41.2c0-2.7-0.8-3.8-3.6-3.7c-3.5,0.2-7,0.2-10.5,0c-3.4-0.3-4.2,1.1-4.2,4.3
                                c0.1,14.7,0.1,29.4,0.1,44.2c0,14.8,0.1,29.7-0.1,44.5c0,2.9,0.8,4.1,3.8,3.9c3.5-0.2,7-0.2,10.5,0c3.2,0.2,4-1.1,4-4.1
                                C334.3,263.9,334.3,247.9,334.3,232z"/>
                            <path fill="#121212" d="M383.5,213c-0.1-18.7-11.9-34.6-29.9-39.7c-3-0.9-3.9-2.2-3.8-5.2c0.5-15.8-0.5-31.4-4.2-46.8
                                C326.4,40.2,245.1-13.4,163.2,2.9C97.4,16.1,55.8,56.9,37.7,121.4c-4.2,15-4.8,30.5-4.2,46c0.1,3.4-0.7,5.2-4.3,6
                                c-5,1.1-9.4,3.8-13.5,6.9c-8.4,6.5-13,15.2-15.6,25.3c0,20,0,39.9,0,59.9c2.6,10,7.2,18.8,15.6,25.2c4.3,3.3,9,5.9,14.2,7.2
                                c2.9,0.7,3.7,2.1,3.6,4.9c-0.2,8.2-0.1,16.4-0.1,24.7c0.1,21.4,16.4,37.7,38,37.8c23.8,0.1,47.6,0.1,71.4,0c2.6,0,4.3,0.5,5.6,2.5
                                c-1.4-5-2.6-12.2-0.7-19.1c-0.7,0.8-1.5,1.2-3,1.2c-24.3-0.1-48.7,0.1-73-0.1c-12.3-0.1-20.8-7.7-22.3-19.9
                                c-1.2-9.3-0.3-18.7-0.4-28c0-2.5,1.7-2.3,3.4-2.3c7.1,0,14.2,0,21.3,0c6.2,0,8.9-2.8,8.9-8.9c0-36.7,0-73.4,0-110
                                c0-5.9-2.8-8.7-8.7-8.8c-7.1-0.1-14.2-0.1-21.3,0c-2.7,0.1-3.7-0.8-3.7-3.6c0-7.2,0.2-14.5,0.8-21.7c1.4-17.3,6-33.8,13.4-49.5
                                c1.2-2.4,2.4-2.3,4.3-1.1c3.4,2.1,6.8,4.3,10.7,5.2c12.1,2.8,21.4-2.1,29-11.1C131,61.6,161.4,47.9,198.4,50
                                c31.3,1.8,57,15.2,77,39.2c8.9,10.6,23.2,18.2,39.6,7c3-2.1,4.3-1.3,5.7,1.8c10.5,22.4,14.1,46.1,13.6,70.6c-0.1,2.7-1.3,3-3.5,3
                                c-7-0.1-14,0-21,0c-6.5,0-9.2,2.6-9.2,9c0,36.6,0,73.1,0,109.7c0,6.4,2.7,9.1,9.1,9.1c11,0,22,0.1,32.9,0
                                c22.5-0.2,40.6-18.3,40.8-40.8C383.6,243.4,383.6,228.2,383.5,213z M33.4,235.5c0,14.4-0.1,28.9,0,43.3c0,3.2-0.8,3.7-3.6,2.3
                                c-9.7-5.1-14.4-13.2-14.6-23.9c-0.2-14.4-0.2-28.9,0-43.3c0.2-10.7,4.9-18.8,14.5-23.9c2.7-1.4,3.7-1.1,3.6,2.2
                                C33.4,206.6,33.4,221,33.4,235.5z M53.1,187.1c3.5,0.3,7,0.2,10.5,0c2.8-0.2,3.6,1,3.6,3.7c-0.1,15.3,0,30.7,0,46
                                c0,14.3-0.1,28.7,0.1,43c0,3-0.8,4.3-4,4.1c-3.5-0.2-7-0.2-10.5,0c-3,0.2-3.8-1-3.8-3.9c0.1-14.8,0.1-29.7,0.1-44.5
                                c0-14.7,0.1-29.4-0.1-44.2C48.8,188.1,49.7,186.8,53.1,187.1z M307.4,82.6c-8.8,5-13.1,4.3-19.7-3.6c-24-28.9-58.7-45.1-106-45.1
                                c-28.8,0.8-60.8,15.5-85.9,44.9c-6.9,8.1-11.2,8.9-20.3,3.5c-2.8-1.6-2.5-3-0.9-5.2c12.1-17.2,27.1-31.2,45.3-41.8
                                c19.7-11.5,40.9-18.2,63.8-19c52.4-2,93.8,18.7,124.9,60.6C310.5,79.5,310.3,80.9,307.4,82.6z M330.4,284c-3.5-0.2-7-0.2-10.5,0
                                c-3,0.2-3.9-1-3.8-3.9c0.1-14.8,0.1-29.7,0.1-44.5c0-14.7,0.1-29.4-0.1-44.2c0-3.2,0.8-4.6,4.2-4.3c3.5,0.3,7,0.2,10.5,0
                                c2.8-0.1,3.7,1,3.6,3.7c-0.1,13.7,0,27.4,0,41.2c0,16-0.1,31.9,0.1,47.9C334.4,282.9,333.6,284.2,330.4,284z M367.9,257.4
                                c-0.2,10.7-5,18.8-14.8,23.8c-2.7,1.4-3.4,0.7-3.4-2.2c0.1-14.6,0-29.1,0-43.7c0-14.3,0-28.6,0-43c0-3.8,0.3-4,3.8-2.2
                                c9.5,5,14.2,13.1,14.3,23.6C368.2,228.3,368.2,242.9,367.9,257.4z"/>
                            <path fill="#FE6723" d="M148.4,367.7c0.2,0.4,0.5,0.8,0.7,1.3c3.5,7.8,10,12.2,17.9,14.8c16.5,0,32.9,0,49.4,0
                                c0.9-0.4,1.8-0.8,2.8-1.1c12.4-4.6,19.7-16.9,17.5-29.7c-2.2-12.7-13.3-21.8-26.5-21.8c-12.1,0-24.2,0-36.3,0
                                c-11.8,0-20.2,5.4-25.2,16c-0.3,0.6-0.6,1.1-0.9,1.5C145.7,355.5,146.9,362.7,148.4,367.7z M174.1,346.6c11.7-0.1,23.4-0.1,35.2,0
                                c6.8,0.1,11.9,4.8,12,10.9c0.1,6-5.1,10.8-11.9,11c-6,0.1-12,0-18,0c-5.7,0-11.5,0.1-17.2,0c-7-0.1-12.3-4.9-12.2-11.1
                                C162.1,351.4,167.2,346.7,174.1,346.6z"/>
                        </g>
                    </svg>