<?xml version="1.0" encoding="utf-8"?>
<!-- Generator: Adobe Illustrator 25.0.1, SVG Export Plug-In . SVG Version: 6.00 Build 0)  -->
<svg version="1.1" id="Layer_1" xmlns="http://www.w3.org/2000/svg" xmlns:xlink="http://www.w3.org/1999/xlink" x="0px" y="0px"
	 viewBox="0 0 383.6 383.5" enable-background="new 0 0 383.6 383.5" xml:space="preserve">
<g>
	<path fill="#121212" d="M0,131.3c1.9-2.8,4.5-3.9,7.8-2.8c3.3,1.1,3.7,3.9,3.7,7c0,48.8,0,97.5,0,146.3c0,4.3,0.5,8.5,3,12.1
		c3.8,5.5,9.4,7,15.7,7c22.5,0,44.9,0,67.4,0c37.5,0,75.1,0,112.6,0.1c3.3,0,4.9-0.4,5.6-4.3c1.9-10.9,10.9-18.1,22-18.1
		c30.1-0.1,60.1,0,90.2,0c4.9,0,4.9,0,4.9-5c0-5.3,0-10.7,0-16.8c-4.7,3.3-8.7,6.1-12.7,8.9c-2.5,1.7-5,3.6-8.2,1.9
		c-3.2-1.7-3.7-4.7-3.6-8c0.1-2.9-0.1-5.7,0-8.6c0.2-3.1-0.9-4.1-4.1-4.1c-14.2,0.1-28.4,0.1-42.7,0.1c-8,0-16,0.1-24,0
		c-12.6-0.1-22.2-9.7-22.3-22.3c-0.1-12.7,0-25.4,0-38.2c0-14.1,9.5-23.7,23.8-23.7c28.7-0.1,57.4,0,86.1,0c8.9,0,7.5,1,7.7-7.8
		c0-3.2,0.1-6.5,0-9.7c0-1,0.6-2.5-0.6-3.1c-1-0.4-1.8,0.7-2.6,1.2c-3.6,2.5-7.1,5.1-10.7,7.5c-5.4,3.6-10.2,1.1-10.5-5.4
		c-0.1-3.1-0.2-6.3,0-9.4c0.3-3.7-1.3-4.6-4.8-4.6c-21.1,0.1-42.2,0.1-63.2,0.1c-9.5,0-17.4-3.1-22.2-11.8
		c-1.9-3.3-2.8-6.9-2.8-10.7c0.1-11.1-0.1-22.2,0.1-33.3c0-3.1-1-4.1-4.1-4.1c-65.2,0.1-130.5,0.1-195.7,0c-3,0-4.2,0.9-4.1,4.1
		c0.2,8.5,0,17,0.1,25.4c0,3.1-0.4,5.8-3.7,7C4.5,109,2,107.8,0,105.1C0,77.4,0,49.7,0,22c0.6-1.6,1.1-3.3,1.9-4.9
		c5-10.7,13.2-17,25.1-17C123.9,0,220.8,0,317.7,0c14.5,0,26.6,12.2,26.8,26.8c0.1,5.2,0.2,10.5,0,15.7c-0.1,3.4,1.2,4.3,4.4,4.2
		c5-0.1,10-0.2,14.9,0.4c11.1,1.3,19.6,10.4,19.6,21.4c0.1,13.6,0.1,27.2,0,40.8c-0.1,10.9-8.3,19.9-19.2,21.5
		c-5.2,0.7-10.5,0.4-15.7,0.5c-2.9,0-4.1,1.2-4,4.1c0.1,8,0.1,16,0,23.9c0,2.4,0.9,3.3,3.3,3.3c4.6-0.1,9.2-0.1,13.8,0
		c12.2,0.4,21.7,10.1,21.8,22.2c0.1,13.3,0.1,26.7,0,40c-0.1,12.2-9.7,21.7-21.9,21.9c-4.4,0.1-8.7,0-13.1,0c-2.5,0-3.9,1.1-3.9,3.9
		c0.1,8.2,0.1,16.5,0,24.7c0,2.6,1.2,3.2,3.4,3.1c4.6-0.1,9.2-0.1,13.8,0c12,0.2,21.6,9.8,21.6,21.8c0.1,13.3,0.1,26.7,0,40
		c-0.1,10.9-7.3,19.6-18,21.8c-5.4,1.1-10.9,0.6-16.4,0.5c-3.9-0.1-6.2-2.8-6.1-6.2c0.1-3.4,2.5-5.8,6.4-5.9c3.6-0.1,7.2,0,10.9-0.1
		c7-0.1,11.4-4.1,11.4-11.1c0.2-12.6,0.2-25.2,0-37.8c-0.1-6.4-3.7-10.1-10-11.1c-1.5-0.2-3-0.2-4.5-0.2c-38.5,0-77.1,0-115.6,0
		c-1.7,0-3.5,0.1-5.2,0.4c-5.8,1-8.8,4.3-8.8,10.3c-0.1,13-0.1,25.9,0,38.9c0.1,6.8,4.1,11.2,10.8,10.4c13-1.5,23.7,2.5,33.1,11.1
		c0.2,0.2,0.4,0.3,0.6,0.4c1.9,1.1,3.8,4,5.5,3.2c1.8-0.9,0.6-4.1,0.7-6.2c0.2-6,2.2-8.2,8.1-8.3c8.5-0.1,17,0,25.4,0
		c5,0,7.7,2.3,7.6,6.2c-0.1,3.8-2.7,5.9-7.5,6c-5,0.1-10,0-15,0c-6.4,0-6.4,0-6.4,6.6c0,2.2-0.1,4.5,0,6.7c0.1,3.3-1,5.9-3.9,7.5
		c-1.7,0-3.5,0-5.2,0c-5.4-4.6-11.8-8-17.1-12.6c-7.5-6.5-15.7-9.8-25.6-8.2c-0.4,0.1-0.7,0-1.1,0c-12.9-0.5-22.2-10.1-22.2-22.9
		c0-7,0-14,0-20.9c0-6.1,0-6.1-6-6.1c-60.1,0-120.2,0-180.2,0c-2.4,0-4.8,0-7.1-0.5C10.2,309.7,3.3,302,0,290.7
		C0,237.6,0,184.4,0,131.3z M172.2,11.8c-47.3,0-94.5,0-141.8,0c-12.5,0-18.8,6.4-18.9,19c0,8.1,0.1,16.2-0.1,24.3
		c-0.1,3.4,1.1,4.2,4.3,4.2c66.1-0.1,132.2-0.1,198.3,0c2.3,0,3.9-0.6,5.3-2.6c3.8-5.7,9.4-8.8,16.2-9.5c7.8-0.8,15.7-0.3,23.6-0.4
		c23.1-0.1,46.2-0.1,69.2,0c3.3,0,4.8-0.9,4.6-4.4c-0.3-4.5,0-9-0.1-13.5c-0.1-5.6-2-10.5-6.7-13.9c-3.6-2.7-7.8-3.2-12.1-3.2
		C266.7,11.8,219.4,11.8,172.2,11.8z M320.6,134.7c3.4-2.4,6.1-3.9,8.4-6c8.6-7.7,18.3-11.1,30.1-9.8c8.5,0.9,12.7-3.8,12.7-12.3
		c0.1-11.7,0.1-23.5,0-35.2c0-8.3-4.3-12.5-12.5-12.5c-39.9,0-79.8,0-119.8,0c-8.1,0-12,3.8-12,11.9c-0.1,11.7,0,23.5,0,35.2
		c0,9.6,3.5,13.1,13,13.1c24.1,0,48.1,0,72.2,0c5.6,0,7.7,2.2,7.8,7.7C320.6,129.1,320.6,131.4,320.6,134.7z M299.4,174.8
		c-20,0-39.9,0-59.9,0c-8.5,0-12,3.5-12,12.1c-0.1,11.7,0,23.4,0,35.2c0,9.4,3.2,12.5,12.7,12.5c22.9,0,45.9,0,68.8,0
		c1.5,0,3,0,4.5,0.1c4.8,0.4,6.9,2.6,7,7.4c0.1,1.9,0,3.7,0,5.6c0,1.9,0.8,2.2,2.3,1.1c2.2-1.6,4.5-3.2,6.7-4.7
		c16.4-11.3,9.5-9.3,29.4-9.5c9-0.1,12.8-3.8,12.8-12.7c0-11.5,0-22.9,0-34.4c0-8.9-3.9-12.7-12.9-12.7
		C339.1,174.8,319.2,174.8,299.4,174.8z"/>
	<path fill="#121212" d="M116,252c-24.8,0-49.6,0-74.4,0c-1.4,0-2.8,0.1-4.1-0.1c-3.2-0.6-4.7-2.8-4.7-5.9c0-2.9,1.6-5,4.5-5.6
		c1.1-0.2,2.2-0.2,3.4-0.2c50.1,0,100.2,0,150.4,0c5.3,0,7.4,1.6,7.5,5.6c0.1,3.7-1.8,5.9-5.5,6.1c-2.6,0.1-5.2,0-7.9,0
		C162.2,252,139.1,252,116,252z"/>
	<path fill="#121212" d="M92.3,276.7c-17.5,0-34.9,0-52.4,0c-3,0-5.4-0.7-6.7-3.7c-1.4-3.4,0.4-7.1,4-7.9c2.2-0.5,4.5-0.6,6.7-0.6
		c32.4,0,64.8,0,97.2,0c1.6,0,3.2,0.1,4.8,0.3c3.9,0.6,6,3,5.8,6.4c-0.3,3.4-2.5,5.4-6.4,5.4c-8,0.1-16,0-23.9,0
		C111.7,276.7,102,276.7,92.3,276.7z"/>
	<path fill="#FE6723" d="M299.3,326.1c-14.1,0-28.1,0-42.2,0c-1.4,0-2.8,0.1-4.1-0.3c-2.8-0.7-4.5-2.7-4.6-5.7
		c-0.1-2.8,1.5-4.8,4.1-5.6c1.8-0.5,3.7-0.6,5.5-0.6c27.5,0,55.1,0,82.6,0c1.7,0,3.5,0.1,5.2,0.5c3.1,0.7,4.7,2.8,4.5,6
		c-0.2,3.1-2.1,5-5.1,5.6c-1.7,0.3-3.5,0.2-5.2,0.2C326.5,326.1,312.9,326.1,299.3,326.1z"/>
	<path fill="#121212" d="M99.3,35.7c-0.1,3.3-2.8,6-6,5.8c-3.1-0.2-5.5-2.8-5.5-6c0-3.4,2.7-6.1,5.9-6
		C96.9,29.6,99.4,32.4,99.3,35.7z"/>
	<path fill="#FE6723" d="M42.3,29.5c3.2-0.1,5.8,2.6,5.8,6c0,3.3-2.6,6-5.8,6c-3-0.1-5.6-2.7-5.7-5.8C36.5,32.4,39.1,29.5,42.3,29.5
		z"/>
	<path fill="#121212" d="M73.6,35.4c0,3.5-2.4,6.1-5.6,6.1c-3.2,0-5.8-2.8-5.8-6.1c0-3.2,2.5-5.8,5.6-5.9C71,29.4,73.5,32,73.6,35.4
		z"/>
	<path fill="#FE6723" d="M299,94.1c-14.5,0-28.9,0-43.4,0c-4.2,0-6.6-1.8-7-5.2c-0.4-2.9,1.5-5.8,4.4-6.5c1.6-0.4,3.2-0.5,4.8-0.5
		c27.8,0,55.6,0,83.4,0c1.1,0,2.2,0.1,3.4,0.2c3.8,0.6,6.1,3.1,5.8,6.5c-0.3,3.3-2.7,5.4-6.4,5.4c-8.5,0.1-17,0-25.4,0
		C312,94.1,305.5,94.1,299,94.1z"/>
	<path fill="#FE6723" d="M299.6,210.8c-14.2,0-28.4,0-42.6,0c-1.2,0-2.5,0.1-3.7-0.2c-2.9-0.6-4.7-2.5-4.8-5.5
		c-0.1-3.1,1.5-5.3,4.6-6c1.9-0.4,4-0.5,5.9-0.5c27.2,0,54.4,0,81.5,0c1.6,0,3.2,0.1,4.8,0.4c3.4,0.6,4.9,2.9,4.9,6.1
		c0,3.2-2.4,5.5-5.8,5.6c-4.4,0.1-8.7,0.1-13.1,0.1C320.8,210.9,310.2,210.8,299.6,210.8z"/>
	<path fill="none" d="M103.8,199.6c-0.5-3.8-1.2-7.6-3.3-11c-1.1-1.8-2.2-2.4-4.3-1.4c-8,3.7-16.1,3.7-24.2,0
		c-2.1-1-3.2-0.3-4.3,1.4c-2,3.3-2.9,6.8-3.2,10.6c-0.2,2.1,0.3,3.3,1.8,3.8h35.8C103.5,202.6,104,201.5,103.8,199.6z"/>
	<path fill="none" d="M71.8,144.7c4.1,0,8.2,0,12.3,0c4.1,0,8.2,0,12.3,0c2.3,0,2.7-0.9,1.5-2.7c-3.3-4.9-7.9-7.5-13.8-7.6
		c-6,0-10.5,2.7-13.8,7.5C69.1,143.9,69.6,144.7,71.8,144.7z"/>
	<path fill="none" d="M97.8,156.9c-4.5,0.1-9,0-13.5,0c-4.4,0-8.7,0.2-13.1-0.1c-3.1-0.2-3.8,1.2-3.8,4c0.1,10,7.5,17.1,17.5,16.8
		c9.1-0.3,16.2-8.5,15.8-17.9C100.7,157.6,99.8,156.9,97.8,156.9z"/>
	<path fill="none" d="M68.3,203.2c5.3-0.1,10.7,0,16,0c5.4,0,10.7-0.1,16.1,0c0.7,0,1.2-0.1,1.7-0.2H66.4
		C66.9,203.1,67.5,203.2,68.3,203.2z"/>
	<path fill="none" d="M190.6,138.2c0-8.6-0.1-17.2,0.1-25.8c0.1-3-0.7-4.2-3.9-4.2c-16.4,0.1-32.9,0.1-49.3,0c-3.2,0-4,1.1-4,4.1
		c0.1,17.1,0.1,34.1,0,51.2c0,3,0.7,4.2,4,4.2c16.4-0.1,32.9-0.1,49.3,0c3.2,0,4-1.2,4-4.1C190.5,155.1,190.6,146.7,190.6,138.2z"/>
	<path fill="#121212" d="M194.2,96.6c-25.4,0-50.9,0-76.3,0c-25.7,0-51.4,0-77.1,0c-6.4,0-8.2,1.8-8.2,8.3c0,34,0,68.1,0,102.1
		c0,6.7,1.7,8.4,8.4,8.4c51,0,102,0,153,0c6.5,0,8.3-1.7,8.3-8.1c0-34.2,0-68.3,0-102.5C202.4,98.2,200.8,96.6,194.2,96.6z
		 M187.3,203.2c-22.6,0-45.1-0.1-67.7,0c-0.6,0-1.1-0.1-1.6-0.2h-15.8c-0.5,0.1-1,0.2-1.7,0.2c-5.3-0.1-10.7,0-16.1,0
		c-5.4,0-10.7-0.1-16,0c-0.8,0-1.4-0.1-1.9-0.2H50.3c-0.6,0.2-1.4,0.2-2.3,0.2c-2.8-0.1-3.3-1.7-3.2-4c0-0.1,0-0.2,0-0.4
		c0-14.5,0-28.9,0-43.4c0-14.2,0.1-28.4-0.1-42.7c0-3.3,0.9-4.6,4.5-4.6c22.6,0.1,45.1,0.2,67.7,0c3.6,0,4.4,1.4,4.4,4.6
		c-0.1,18.5-0.1,36.9,0,55.4c0,1.7,0.1,3.5,0.2,5.2c0.3,3.8,2.4,5.9,6.2,6.2c1.7,0.1,3.5,0.2,5.2,0.2c17.6,0,35.2,0,52.8,0
		c4.9,0,4.9,0,4.9,5.1c0,4.9-0.1,9.7,0,14.6C190.7,202,189.9,203.2,187.3,203.2z M186.7,167.8c-16.4-0.1-32.9-0.1-49.3,0
		c-3.2,0-4-1.2-4-4.2c0.1-17.1,0.1-34.1,0-51.2c0-3,0.8-4.2,4-4.1c16.4,0.1,32.9,0.1,49.3,0c3.2,0,4,1.2,3.9,4.2
		c-0.2,8.6-0.1,17.2-0.1,25.8c0,8.5-0.1,16.9,0.1,25.4C190.7,166.6,189.9,167.8,186.7,167.8z"/>
	<path fill="#FE6723" d="M115.6,199.3c-0.2-7.3-2.3-14-6.8-19.8c-1.2-1.5-0.7-2.7,0.1-4.1c2.7-4.6,3.8-9.7,3.7-15.1
		c-0.2-5.1,0.4-10.3-0.4-15.3c-2.7-16.6-19-26-36.1-21.2c-12.9,3.6-19.9,13-20.5,27.8c-0.4,8.4-0.4,16.8,4.2,24.3
		c0.7,1.2,0.7,2.3-0.2,3.5c-4.7,5.9-6.5,12.8-7,20.2c-0.1,2.1-0.9,3-2.1,3.3h16.1c-1.5-0.5-2-1.7-1.8-3.8c0.3-3.8,1.3-7.3,3.2-10.6
		c1-1.7,2.2-2.4,4.3-1.4c8,3.7,16.1,3.7,24.2,0c2.1-1,3.2-0.3,4.3,1.4c2.1,3.4,2.8,7.2,3.3,11c0.3,1.9-0.3,3-1.6,3.4h15.8
		C116.3,202.5,115.7,201.3,115.6,199.3z M70.3,142c3.3-4.9,7.8-7.6,13.8-7.5c5.9,0,10.5,2.6,13.8,7.6c1.2,1.8,0.8,2.7-1.5,2.7
		c-4.1,0-8.2,0-12.3,0c-4.1,0-8.2,0-12.3,0C69.6,144.7,69.1,143.9,70.3,142z M85,177.6c-10,0.3-17.4-6.8-17.5-16.8
		c0-2.8,0.7-4.1,3.8-4c4.3,0.2,8.7,0.1,13.1,0.1c4.5,0,9,0,13.5,0c2,0,2.9,0.6,3,2.8C101.3,169.1,94.1,177.3,85,177.6z"/>
</g>
</svg>
