<?xml version="1.0" encoding="utf-8"?>
<!-- Generator: Adobe Illustrator 26.3.1, SVG Export Plug-In . SVG Version: 6.00 Build 0)  -->
<svg version="1.1" id="Layer_1" xmlns="http://www.w3.org/2000/svg" xmlns:xlink="http://www.w3.org/1999/xlink" x="0px" y="0px"
	 viewBox="0 0 211.6 91.3" style="enable-background:new 0 0 211.6 91.3;" xml:space="preserve">
<style type="text/css">
	.st0{fill:#FFFFFF;fill-opacity:0;}
	.st1{fill:#FF6724;}
	.st2{fill:#0D1319;}
	.st3{fill:url(#SVGID_1_);}
</style>
<g transform="translate(-90 1.012)">
	<g transform="translate(184.46 21.325)">
		<g transform="translate(20.936 -8.154)">
			<path class="st0" d="M0.6,11.6L0.6,11.6v-28.8l0,0V11.6z"/>
			<path class="st0" d="M0.6,9.4v-26.6l0,0v28.8l0,0V9.4z"/>
			<path class="st0" d="M0-15.7L0,9.4c0,1.1,0,2.1,0,2.1h0.6c0,0,0-1,0-2.1l0-25.1c0-0.9,0-1.6,0-1.6H0.1C0-17.2,0-16.6,0-15.7z"/>
			<path class="st0" d="M0.6,25.8L0.6,25.8v-57.2l0,0V25.8z"/>
		</g>
		<path class="st1" d="M17.5-8.5c0,4.8-3.9,8.7-8.7,8.7C3.9,0.2,0-3.7,0-8.5c0-4.8,3.9-8.7,8.7-8.7c0,0,0,0,0,0
			C13.6-17.2,17.5-13.3,17.5-8.5L17.5-8.5"/>
	</g>
	<g transform="translate(90 18.407)">
		<path class="st2" d="M141.3,25.3h1.2c0.1,0,0.2-0.1,0.2-0.2c0,0,0,0,0,0v-0.7c0-0.1-0.1-0.2-0.1-0.2c0,0,0,0-0.1,0h-1.3
			c-0.4,0-0.9-0.1-1.2-0.4c-0.3-0.3-0.4-0.7-0.4-1.1c0-0.3,0.1-0.7,0.3-1c0.2-0.3,0.6-0.5,1-0.4h4.1c0.5,0,1-0.1,1.4-0.3
			c0.4-0.2,0.7-0.5,0.8-0.9c0.1,0.4,0.5,0.8,0.9,0.9c0.5,0.1,0.9,0.2,1.4,0.2h30.1c0.3,0,0.7-0.1,1-0.2c0.4-0.2,0.7-0.5,0.8-0.8
			c0.3,0.4,0.7,0.7,1.1,0.9c0.5,0.2,1,0.3,1.6,0.3c1,0.1,1.9-0.3,2.6-1c0.7-1,1-2.1,0.9-3.3c0.1-1.1-0.2-2.3-0.9-3.2
			c-0.6-0.7-1.6-1.1-2.6-1.1c-2.3,0-3.5,1.5-3.5,4.5c0,0.2,0,0.4,0,0.6c0,0.2,0,0.3,0,0.5c0,0.3,0,0.6-0.1,0.9
			c-0.1,0.2-0.2,0.4-0.3,0.6c-0.1,0.1-0.2,0.2-0.4,0.3c-0.1,0.1-0.3,0.1-0.4,0.1h-30.4c-0.4,0-0.9-0.1-1.2-0.3
			c-0.3-0.2-0.5-0.6-0.5-1V18c0-0.6-0.1-1.2-0.2-1.8c-0.1-0.6-0.3-1.1-0.6-1.6c-0.3-0.5-0.7-0.9-1.3-1.2c-0.7-0.3-1.4-0.5-2.1-0.4
			c-0.7,0-1.4,0.1-2,0.4c-0.5,0.3-1,0.7-1.3,1.1c-0.1,0.1-0.1,0.2,0,0.2c0,0,0,0,0.1,0l0.5,0.5c0.1,0.1,0.2,0.1,0.2,0
			c0,0,0,0,0.1-0.1c0.3-0.4,0.7-0.7,1.1-0.9c0.4-0.2,0.9-0.3,1.3-0.2c0.5,0,1,0.1,1.4,0.3c0.4,0.2,0.7,0.5,0.9,0.8
			c0.3,0.4,0.4,0.8,0.5,1.3c0.1,0.6,0.2,1.1,0.1,1.7c0,0.3,0,0.7,0,1c0,0.2-0.1,0.5-0.2,0.7c-0.1,0.2-0.3,0.3-0.5,0.3
			c-0.3,0.1-0.6,0.1-0.9,0.1h-3.8c-0.3,0-0.5,0-0.8,0.1c-0.6,0.2-1.1,0.6-1.3,1.2c-0.2,0.4-0.2,0.8-0.2,1.3
			C138.5,24.5,139.4,25.3,141.3,25.3z M182.5,14.9c0.8-1,2.2-1.1,3.2-0.3c0.1,0.1,0.2,0.2,0.3,0.3c0.4,0.7,0.6,1.5,0.6,2.3
			c0.1,0.8-0.1,1.6-0.6,2.4c-0.4,0.5-1.1,0.8-1.8,0.8c-0.7,0.1-1.4-0.2-1.8-0.8c-0.4-0.7-0.6-1.5-0.5-2.4
			C181.9,16.4,182.1,15.6,182.5,14.9z"/>
		<path class="st2" d="M143.7,23.1h1c0.1,0,0.2,0.1,0.2,0.2v1.2c0,0.1-0.1,0.2-0.2,0.2h-1c-0.1,0-0.2-0.1-0.2-0.2c0,0,0,0,0,0v-1.2
			C143.5,23.2,143.6,23.1,143.7,23.1z"/>
		<path class="st2" d="M192.6,21.4h5.9c0.4,0,0.8,0,1.2-0.2c0.3-0.1,0.5-0.2,0.7-0.5c0.2-0.2,0.3-0.5,0.4-0.8
			c0.1-0.4,0.1-0.7,0.1-1.1v-5.4c0-0.1-0.1-0.2-0.1-0.2c0,0,0,0-0.1,0h-0.7c-0.1,0-0.2,0.1-0.2,0.1c0,0,0,0,0,0.1v5.7
			c0,0.3-0.1,0.6-0.3,0.8c-0.2,0.2-0.5,0.3-0.8,0.2h-6.3c-0.5,0.1-0.9-0.3-1-0.7c0-0.1,0-0.2,0-0.3V7.9c0-0.1-0.1-0.2-0.1-0.2
			c0,0,0,0-0.1,0h-0.7c-0.1,0-0.2,0.1-0.2,0.1c0,0,0,0,0,0.1v11.2c-0.1,0.6,0.1,1.2,0.5,1.7C191.4,21.2,192,21.4,192.6,21.4z"/>
		<path class="st2" d="M199.9,11.3h0.8c0.1,0,0.2-0.1,0.2-0.1c0,0,0,0,0-0.1V9.9c0-0.1-0.1-0.2-0.1-0.2c0,0,0,0-0.1,0h-0.8
			c-0.1,0-0.2,0.1-0.2,0.1c0,0,0,0,0,0.1v1.2C199.6,11.2,199.7,11.3,199.9,11.3C199.8,11.3,199.8,11.3,199.9,11.3z"/>
		<path class="st2" d="M202.5,25.3h0.3c0.8,0.1,1.6-0.2,2.2-0.8c0.5-0.6,0.7-1.4,0.7-2.2v-1.6c0.2,0.3,0.5,0.4,0.9,0.5
			c0.4,0.1,0.8,0.1,1.1,0.1h1.2c0.4,0,0.8,0,1.2-0.2c0.3-0.1,0.5-0.2,0.7-0.5c0.2-0.2,0.3-0.5,0.4-0.8c0.1-0.4,0.1-0.7,0.1-1.1v-5.3
			c0-0.1-0.1-0.2-0.1-0.2c0,0,0,0-0.1,0h-0.7c-0.1,0-0.2,0.1-0.2,0.1c0,0,0,0,0,0.1v5.7c0,0.3-0.1,0.6-0.3,0.8
			c-0.2,0.2-0.5,0.3-0.8,0.2h-1.5c-0.5,0-1-0.1-1.4-0.4c-0.4-0.3-0.6-0.7-0.5-1.1v-5.3c0-0.1-0.1-0.2-0.1-0.2c0,0,0,0-0.1,0h-0.7
			c-0.1,0-0.2,0.1-0.2,0.1c0,0,0,0,0,0.1v9c0,0.5-0.1,0.9-0.4,1.3c-0.3,0.3-0.8,0.5-1.2,0.4h-0.4c-0.1,0-0.2,0.1-0.2,0.1
			c0,0,0,0,0,0.1v0.7C202.2,25.2,202.3,25.3,202.5,25.3C202.4,25.3,202.4,25.3,202.5,25.3z"/>
		<path class="st2" d="M209.6,23c-0.1,0-0.2,0.1-0.2,0.1c0,0,0,0,0,0.1v1.2c0,0.1,0.1,0.2,0.1,0.2c0,0,0,0,0.1,0h1
			c0.1,0,0.2-0.1,0.2-0.2c0,0,0,0,0,0v-1.2c0-0.1-0.1-0.2-0.1-0.2c0,0,0,0-0.1,0L209.6,23z"/>
		<path class="st2" d="M144.6,43.7v-0.6c0-0.1-0.1-0.2-0.2-0.2h-3.2c-0.3-0.2-0.6-0.5-0.7-0.9c-0.2-0.4-0.4-0.9-0.3-1.4
			c0-0.3,0-0.5,0.1-0.7c0.1-0.2,0.2-0.4,0.3-0.6c0.2-0.2,0.4-0.3,0.6-0.4c0.6-0.2,1.2-0.2,1.7,0c0.2,0.1,0.5,0.3,0.6,0.5
			c0,0,0.1,0.1,0.1,0.1c0,0,0.1,0,0.2-0.1l0.5-0.4c0,0,0.1-0.1,0.1-0.1c0,0,0-0.1-0.1-0.2c-0.2-0.4-0.6-0.7-0.9-0.8
			c-0.4-0.2-0.8-0.2-1.3-0.2c-0.5,0-1,0.1-1.5,0.3c-0.4,0.2-0.7,0.5-0.9,0.8c-0.2,0.3-0.4,0.6-0.5,1c-0.1,0.3-0.1,0.6-0.1,0.9
			c0,0.4,0.1,0.9,0.2,1.3c0.1,0.4,0.3,0.7,0.5,1h-1.2c-0.1,0-0.2,0.1-0.2,0.2v0.6c0,0.1,0.1,0.2,0.2,0.2h5.9
			C144.5,43.9,144.6,43.8,144.6,43.7z"/>
		<path class="st2" d="M146.7,30.3h0.7c0.1,0,0.2,0.1,0.2,0.2v13.2c0,0.1-0.1,0.2-0.2,0.2h-0.7c-0.1,0-0.2-0.1-0.2-0.2c0,0,0,0,0,0
			V30.5C146.5,30.4,146.6,30.3,146.7,30.3z"/>
		<path class="st2" d="M158.2,46.9v-1.2c0-0.1-0.1-0.2-0.1-0.2c0,0,0,0-0.1,0h-1c-0.1,0-0.2,0.1-0.2,0.1c0,0,0,0,0,0.1v1.2
			c0,0.1,0.1,0.2,0.1,0.2c0,0,0,0,0.1,0h1C158.1,47.1,158.2,47.1,158.2,46.9C158.2,47,158.2,46.9,158.2,46.9z"/>
		<path class="st2" d="M206.9,32.3c-0.1,0-0.2,0.1-0.2,0.1c0,0,0,0,0,0.1v1.2c0,0.1,0.1,0.2,0.1,0.2c0,0,0,0,0.1,0h0.8
			c0.1,0,0.2-0.1,0.2-0.1c0,0,0,0,0-0.1v-1.2c0-0.1-0.1-0.2-0.1-0.2c0,0,0,0-0.1,0H206.9z"/>
		<path class="st2" d="M211.2,42.1c0.1-0.5,0.1-1,0.1-1.5c0-0.6-0.1-1.2-0.2-1.9c-0.1-0.6-0.3-1.1-0.6-1.6c-0.3-0.5-0.7-0.9-1.3-1.2
			c-0.7-0.3-1.4-0.5-2.1-0.4c-0.7,0-1.4,0.1-2,0.4c-0.5,0.3-1,0.7-1.3,1.1c-0.1,0.1-0.1,0.2,0,0.2c0,0,0,0,0.1,0l0.5,0.5
			c0.1,0.1,0.2,0.1,0.2,0c0,0,0,0,0.1-0.1c0.3-0.4,0.7-0.7,1.1-0.9c0.4-0.2,0.9-0.3,1.3-0.2c0.5,0,1,0.1,1.4,0.3
			c0.4,0.2,0.7,0.5,0.9,0.8c0.3,0.4,0.4,0.8,0.5,1.3c0.1,0.6,0.2,1.1,0.1,1.7c0,0.3,0,0.7,0,1c0,0.2-0.1,0.5-0.2,0.7
			c-0.1,0.2-0.3,0.3-0.5,0.4c-0.3,0.1-0.6,0.1-0.9,0.1h-48.5c-0.5,0-1-0.1-1.4-0.4c-0.4-0.3-0.6-0.7-0.5-1.1V36
			c0-0.1-0.1-0.2-0.1-0.2c0,0,0,0-0.1,0h-0.7c-0.1,0-0.2,0.1-0.2,0.1c0,0,0,0,0,0.1v5.1c0,0.3,0,0.5,0,0.7c0,0.2-0.1,0.4-0.1,0.5
			c-0.1,0.1-0.2,0.2-0.3,0.3c-0.2,0.1-0.4,0.1-0.6,0.1h-1.5c-0.5,0-1-0.1-1.4-0.4c-0.4-0.3-0.6-0.7-0.5-1.1V36
			c0-0.1-0.1-0.2-0.1-0.2c0,0,0,0-0.1,0h-0.7c-0.1,0-0.2,0.1-0.2,0.1c0,0,0,0,0,0.1v9c0,0.5-0.1,0.9-0.4,1.3
			c-0.3,0.3-0.8,0.5-1.2,0.4h-0.5c-0.1,0-0.2,0.1-0.2,0.1c0,0,0,0,0,0.1v0.7c0,0.1,0.1,0.2,0.1,0.2c0,0,0,0,0.1,0h0.3
			c0.8,0.1,1.6-0.2,2.2-0.8c0.5-0.6,0.7-1.4,0.7-2.2v-1.6c0.2,0.3,0.5,0.4,0.9,0.5c0.4,0.1,0.8,0.1,1.1,0.1h1.5
			c0.4,0,0.8-0.1,1.1-0.3c0.3-0.2,0.5-0.5,0.6-0.8c0.1,0.4,0.5,0.7,0.9,0.9c0.4,0.1,0.9,0.2,1.4,0.2c0,0,0,0,0,0h48.7
			c0.4,0,0.9,0,1.3-0.2c0.3-0.1,0.6-0.3,0.8-0.6C211,42.9,211.1,42.5,211.2,42.1z"/>
		<path class="st2" d="M152.3,58.4h-0.7c-0.1,0-0.2,0.1-0.2,0.1c0,0,0,0,0,0.1v5.7c0,0.3,0,0.6-0.2,0.8c-0.2,0.2-0.5,0.3-0.7,0.2
			h-9.7c-0.3,0-0.5-0.1-0.7-0.2c-0.2-0.2-0.3-0.5-0.2-0.8v-4.4c0-0.1-0.1-0.2-0.1-0.2c0,0,0,0-0.1,0h-0.7c-0.1,0-0.2,0.1-0.2,0.1
			c0,0,0,0,0,0.1v4.4c-0.1,0.6,0.1,1.2,0.5,1.7c0.5,0.4,1.1,0.6,1.8,0.5h9.4c0.6,0,1.1-0.1,1.6-0.5c0.4-0.5,0.5-1.1,0.5-1.7v-5.7
			C152.5,58.5,152.4,58.4,152.3,58.4C152.3,58.4,152.3,58.4,152.3,58.4z"/>
		<path class="st2" d="M143.7,56.2v1.2c0,0.1,0.1,0.2,0.1,0.2c0,0,0,0,0.1,0h1c0.1,0,0.2-0.1,0.2-0.1c0,0,0,0,0-0.1v-1.2
			c0-0.1-0.1-0.2-0.1-0.2c0,0,0,0-0.1,0h-1C143.8,56,143.7,56.1,143.7,56.2C143.7,56.2,143.7,56.2,143.7,56.2z"/>
		<path class="st2" d="M146.2,56.2v1.2c0,0.1,0.1,0.2,0.1,0.2c0,0,0,0,0.1,0h1c0.1,0,0.2-0.1,0.2-0.1c0,0,0,0,0-0.1v-1.2
			c0-0.1-0.1-0.2-0.1-0.2c0,0,0,0-0.1,0h-1C146.3,56,146.2,56.1,146.2,56.2C146.2,56.2,146.2,56.2,146.2,56.2z"/>
		<path class="st2" d="M155.3,52.9h0.7c0.1,0,0.2,0.1,0.2,0.2c0,0,0,0,0,0v13.2c0,0.1-0.1,0.2-0.2,0.2h-0.7c-0.1,0-0.2-0.1-0.2-0.2
			V53.1C155.1,53,155.2,52.9,155.3,52.9z"/>
		<path class="st2" d="M160.8,58.4h-0.7c-0.1,0-0.2,0.1-0.2,0.1c0,0,0,0,0,0.1v9c0,0.5-0.1,0.9-0.4,1.3c-0.3,0.3-0.8,0.5-1.2,0.4
			h-0.5c-0.1,0-0.2,0.1-0.2,0.1c0,0,0,0,0,0.1v0.7c0,0.1,0.1,0.2,0.1,0.2c0,0,0,0,0.1,0h0.3c0.8,0.1,1.6-0.2,2.2-0.8
			c0.5-0.6,0.7-1.4,0.7-2.2v-8.9C161,58.5,161,58.4,160.8,58.4C160.9,58.4,160.9,58.4,160.8,58.4z"/>
		<path class="st2" d="M192,58c-2.3,0-3.5,1.5-3.5,4.5c0,0.2,0,0.4,0,0.6s0,0.4,0,0.5c0,0.3,0,0.6-0.1,0.9c-0.1,0.2-0.2,0.4-0.3,0.6
			c-0.1,0.1-0.2,0.2-0.4,0.3c-0.1,0.1-0.3,0.1-0.4,0.1H166c-0.5,0.1-0.9-0.3-1-0.7c0-0.1,0-0.2,0-0.3V53.1c0-0.1-0.1-0.2-0.1-0.2
			c0,0,0,0-0.1,0h-0.7c-0.1,0-0.2,0.1-0.2,0.1c0,0,0,0,0,0.1v11.2c-0.1,0.6,0.1,1.2,0.5,1.7c0.5,0.4,1.1,0.6,1.8,0.5h21.2
			c0.3,0,0.7-0.1,1-0.2c0.4-0.2,0.7-0.5,0.8-0.8c0.3,0.4,0.7,0.7,1.1,0.9c0.5,0.2,1,0.3,1.6,0.3c1,0.1,1.9-0.3,2.6-1
			c0.7-1,1-2.1,0.9-3.3c0.1-1.1-0.2-2.3-0.9-3.2C193.9,58.4,192.9,58,192,58z M193.8,64.7c-0.4,0.5-1.1,0.8-1.8,0.8
			c-0.7,0.1-1.4-0.2-1.8-0.8c-0.4-0.7-0.6-1.5-0.5-2.4c0-0.8,0.1-1.6,0.5-2.4c0.8-1,2.2-1.1,3.2-0.3c0.1,0.1,0.2,0.2,0.3,0.4
			c0.4,0.7,0.6,1.5,0.6,2.3C194.4,63.2,194.2,64,193.8,64.7L193.8,64.7z"/>
		<path class="st2" d="M207.4,52.9h-0.7c-0.1,0-0.2,0.1-0.2,0.1c0,0,0,0,0,0.1v11.2c0,0.3,0,0.6-0.2,0.8c-0.2,0.2-0.5,0.3-0.7,0.2
			H203v-9.5c0-0.1-0.1-0.2-0.1-0.2c0,0,0,0-0.1,0h-0.7c-0.1,0-0.2,0.1-0.2,0.1c0,0,0,0,0,0.1v9.5h-4.2c-0.1,0-0.2,0.1-0.2,0.1
			c0,0,0,0,0,0.1v0.7c0,0.1,0.1,0.2,0.1,0.2c0,0,0,0,0.1,0h7.6c0.6,0.1,1.3-0.1,1.8-0.6c0.4-0.6,0.6-1.3,0.5-2V53.1
			C207.6,53,207.5,52.9,207.4,52.9C207.4,52.9,207.4,52.9,207.4,52.9z"/>
		<path class="st2" d="M204.3,71.1h-2.1c-0.2-0.1-0.3-0.3-0.4-0.5c-0.1-0.2-0.2-0.5-0.2-0.7c0-0.3,0.1-0.6,0.3-0.9
			c0.2-0.2,0.5-0.4,0.8-0.4c0.2,0,0.4,0,0.6,0.1c0.2,0.1,0.3,0.2,0.4,0.3c0.1,0.1,0.2,0.1,0.2,0l0.3-0.3c0,0,0-0.1,0.1-0.1
			c0,0,0-0.1,0-0.1c-0.2-0.2-0.4-0.4-0.6-0.5c-0.3-0.1-0.6-0.2-0.9-0.2c-0.3,0-0.7,0.1-0.9,0.2c-0.2,0.1-0.4,0.3-0.6,0.5
			c-0.1,0.2-0.2,0.4-0.3,0.6c-0.1,0.2-0.1,0.4-0.1,0.6c0,0.3,0,0.5,0.1,0.8c0.1,0.2,0.2,0.4,0.3,0.6h-0.7c-0.1,0-0.1,0-0.1,0.1v0.5
			c0,0.1,0,0.1,0.1,0.1h3.8c0.1,0,0.1,0,0.1-0.1v-0.5C204.4,71.1,204.4,71.1,204.3,71.1z"/>
		<path class="st2" d="M210.8,52.9h0.7c0.1,0,0.2,0.1,0.2,0.2c0,0,0,0,0,0v13.2c0,0.1-0.1,0.2-0.2,0.2h-0.7c-0.1,0-0.2-0.1-0.2-0.2
			V53.1C210.5,53,210.6,52.9,210.8,52.9z"/>
		<path class="st2" d="M8.8,8.4H8.1c-0.1,0-0.2,0-0.2,0.1c0,0,0,0,0,0v10.5H7.9L1.5,8.6C1.4,8.4,1.3,8.4,1.2,8.4H0.5
			c-0.1,0-0.2,0-0.2,0.1c0,0,0,0,0,0V21c0,0.1,0.1,0.2,0.1,0.2c0,0,0,0,0,0h0.7c0.1,0,0.2,0,0.2-0.1c0,0,0,0,0,0V10.4h0.1L7.8,21
			c0.1,0.1,0.2,0.2,0.3,0.2h0.7c0.1,0,0.2,0,0.2-0.1c0,0,0,0,0,0V8.6C9,8.5,9,8.4,8.8,8.4C8.9,8.4,8.8,8.4,8.8,8.4z"/>
		<path class="st2" d="M20.2,21v-6c0-0.5-0.1-0.9-0.2-1.4c-0.1-0.4-0.3-0.7-0.6-0.9c-0.3-0.3-0.6-0.4-1-0.5c-0.5-0.1-1-0.2-1.5-0.2
			c-0.6,0-1.1,0.1-1.7,0.2c-0.4,0.1-0.8,0.3-1.2,0.6C14,12.9,14,13,14,13.1c0,0,0,0,0,0l0.3,0.5c0.1,0.1,0.2,0.1,0.3,0
			c0.3-0.2,0.6-0.4,0.9-0.5c0.4-0.1,0.9-0.2,1.3-0.2c0.4,0,0.8,0,1.1,0.1c0.3,0.1,0.5,0.2,0.7,0.4c0.2,0.2,0.3,0.4,0.4,0.6
			c0.1,0.3,0.1,0.6,0.1,0.9v0.9c0,0.1,0,0.1-0.1,0.1c0,0,0,0,0,0h-2.3c-0.9-0.1-1.8,0.2-2.5,0.6c-0.6,0.5-0.9,1.2-0.9,2
			c-0.1,0.8,0.3,1.5,0.8,2c0.6,0.5,1.4,0.7,2.2,0.7c0.6,0,1.2-0.1,1.8-0.4c0.4-0.2,0.8-0.5,1-0.9h0V21c0,0.1,0.1,0.2,0.1,0.2
			c0,0,0,0,0,0H20C20.1,21.2,20.2,21.1,20.2,21C20.2,21,20.2,21,20.2,21z M19.2,18.4c0,0.6-0.2,1.1-0.7,1.5
			c-0.5,0.4-1.2,0.6-1.9,0.5c-0.6,0-1.2-0.1-1.6-0.4c-0.4-0.3-0.6-0.8-0.6-1.3c0-0.5,0.2-1,0.6-1.3c0.6-0.3,1.3-0.5,1.9-0.4h2.1
			c0.1,0,0.1,0,0.1,0.1c0,0,0,0,0,0L19.2,18.4z"/>
		<path class="st2" d="M24.1,13.1h0.9c0.1,0,0.1,0,0.1,0.1c0,0,0,0,0,0v5.6c-0.1,0.7,0.1,1.3,0.5,1.9c0.5,0.4,1.2,0.6,1.8,0.5H28
			c0.1,0,0.2,0,0.2-0.1c0,0,0,0,0,0v-0.6c0-0.1,0-0.2-0.1-0.2c0,0,0,0,0,0h-0.4c-0.6,0.2-1.3-0.2-1.5-0.9c0-0.2,0-0.4,0-0.6v-5.5
			c0-0.1,0-0.1,0.1-0.1c0,0,0,0,0,0H28c0.1,0,0.2,0,0.2-0.1c0,0,0,0,0,0v-0.5c0-0.1,0-0.2-0.1-0.2c0,0,0,0,0,0h-1.7
			c-0.1,0-0.1,0-0.1-0.1c0,0,0,0,0,0V9.5c0-0.1,0-0.2-0.1-0.2c0,0,0,0,0,0h-0.6c-0.1,0-0.2,0-0.2,0.1c0,0,0,0,0,0v2.6
			c0,0.1,0,0.1-0.1,0.1c0,0,0,0,0,0h-0.9c-0.1,0-0.2,0-0.2,0.1c0,0,0,0,0,0v0.5C23.9,13,24,13.1,24.1,13.1
			C24.1,13.1,24.1,13.1,24.1,13.1z"/>
		<path class="st2" d="M32.3,9.2h0.8c0.1,0,0.2,0.1,0.2,0.2v1c0,0.1-0.1,0.2-0.2,0.2h-0.8c-0.1,0-0.2-0.1-0.2-0.2v-1
			C32.1,9.3,32.2,9.2,32.3,9.2z"/>
		<path class="st2" d="M32.4,12.2H33c0.1,0,0.2,0.1,0.2,0.2V21c0,0.1-0.1,0.2-0.2,0.2h-0.6c-0.1,0-0.2-0.1-0.2-0.2v-8.6
			C32.2,12.3,32.3,12.2,32.4,12.2z"/>
		<path class="st2" d="M37.8,19c0.2,0.7,0.6,1.3,1.2,1.7c0.6,0.4,1.4,0.6,2.1,0.6c0.8,0,1.5-0.2,2.1-0.6c0.6-0.4,1-1,1.2-1.7
			c0.1-0.3,0.2-0.7,0.2-1c0.1-0.5,0.1-0.9,0.1-1.4c0-0.4,0-0.9-0.1-1.3c0-0.3-0.1-0.7-0.2-1c-0.2-0.7-0.7-1.3-1.2-1.7
			c-0.6-0.4-1.4-0.6-2.1-0.6c-0.7,0-1.5,0.2-2.1,0.6c-0.6,0.4-1,1-1.2,1.7c-0.1,0.3-0.2,0.7-0.2,1c-0.1,0.4-0.1,0.9-0.1,1.3
			c0,0.5,0,0.9,0.1,1.4C37.6,18.4,37.7,18.7,37.8,19z M38.6,15.5c0-0.3,0.1-0.6,0.2-0.8c0.1-0.5,0.5-0.9,0.9-1.2
			c0.4-0.3,1-0.4,1.5-0.4c0.5,0,1.1,0.1,1.5,0.4c0.4,0.3,0.7,0.7,0.9,1.2c0.1,0.3,0.2,0.6,0.2,0.8c0,0.4,0.1,0.8,0.1,1.2
			c0,0.4,0,0.8-0.1,1.2c0,0.3-0.1,0.6-0.2,0.8c-0.1,0.5-0.5,0.9-0.9,1.2c-0.4,0.3-1,0.4-1.5,0.4c-0.5,0-1-0.1-1.5-0.4
			c-0.4-0.3-0.7-0.7-0.9-1.2c-0.1-0.3-0.2-0.6-0.2-0.8c0-0.4-0.1-0.8-0.1-1.2C38.5,16.3,38.5,15.9,38.6,15.5L38.6,15.5z"/>
		<path class="st2" d="M49.9,21.2c0.1,0,0.2-0.1,0.2-0.1c0,0,0,0,0,0v-5.5c0-0.7,0.2-1.4,0.7-1.8c0.5-0.4,1.1-0.7,1.7-0.7
			c1.6,0,2.4,0.9,2.4,2.7V21c0,0.1,0.1,0.2,0.1,0.2c0,0,0,0,0,0h0.6c0.1,0,0.2,0,0.2-0.1c0,0,0,0,0,0v-5.5c0.1-0.9-0.2-1.8-0.8-2.5
			c-0.6-0.6-1.5-0.9-2.3-0.9c-0.6,0-1.1,0.1-1.6,0.4c-0.4,0.2-0.8,0.6-1,1.1h0v-1.1c0-0.1-0.1-0.2-0.1-0.2c0,0,0,0,0,0h-0.6
			c-0.1,0-0.2,0-0.2,0.1c0,0,0,0,0,0V21c0,0.1,0,0.2,0.1,0.2c0,0,0,0,0,0H49.9z"/>
		<path class="st2" d="M63.2,21.4c0.6,0,1.2-0.1,1.8-0.4c0.4-0.2,0.8-0.5,1-0.9h0V21c0,0.1,0.1,0.2,0.1,0.2c0,0,0,0,0,0h0.6
			c0.1,0,0.2,0,0.2-0.1c0,0,0,0,0,0v-6c0-0.5-0.1-0.9-0.2-1.4c-0.1-0.4-0.3-0.7-0.6-0.9c-0.3-0.3-0.6-0.4-1-0.5
			c-0.5-0.1-1-0.2-1.5-0.2c-0.6,0-1.1,0.1-1.7,0.2c-0.4,0.1-0.8,0.3-1.2,0.6c-0.1,0-0.1,0.2-0.1,0.2c0,0,0,0,0,0l0.3,0.5
			c0.1,0.1,0.2,0.1,0.3,0c0.3-0.2,0.6-0.4,0.9-0.5c0.4-0.1,0.9-0.2,1.3-0.2c0.4,0,0.8,0,1.1,0.1c0.3,0.1,0.5,0.2,0.7,0.4
			c0.2,0.2,0.3,0.4,0.4,0.6c0.1,0.3,0.1,0.6,0.1,0.9v0.9c0,0.1,0,0.1-0.1,0.1c0,0,0,0,0,0h-2.3c-0.9-0.1-1.8,0.2-2.5,0.6
			c-0.6,0.5-0.9,1.2-0.9,2c-0.1,0.8,0.3,1.5,0.8,2C61.6,21.2,62.4,21.4,63.2,21.4z M61.8,17.3c0.6-0.3,1.3-0.5,1.9-0.4h2.1
			c0.1,0,0.1,0,0.1,0.1c0,0,0,0,0,0v1.4c0,0.6-0.2,1.1-0.7,1.5c-0.5,0.4-1.2,0.6-1.9,0.5c-0.6,0-1.2-0.1-1.6-0.4
			c-0.4-0.3-0.6-0.8-0.6-1.3C61.2,18.2,61.4,17.7,61.8,17.3L61.8,17.3z"/>
		<path class="st2" d="M74,20.2h-0.3c-0.3,0-0.5-0.1-0.7-0.3c-0.2-0.3-0.3-0.6-0.2-0.9V8.6c0-0.1,0-0.2-0.1-0.2c0,0,0,0,0,0h-0.6
			c-0.1,0-0.2,0-0.2,0.1c0,0,0,0,0,0v10.6c-0.1,0.6,0.1,1.1,0.4,1.6c0.4,0.4,0.9,0.5,1.4,0.5H74c0.1,0,0.2,0,0.2-0.1c0,0,0,0,0,0
			v-0.6C74.2,20.3,74.1,20.3,74,20.2C74,20.2,74,20.2,74,20.2z"/>
		<path class="st2" d="M0.2,43.9h7.3c0.1,0,0.2-0.1,0.2-0.1c0,0,0,0,0,0V43c0-0.1-0.1-0.2-0.1-0.2c0,0,0,0,0,0H1.2
			c-0.1,0-0.1,0-0.1-0.1c0,0,0,0,0,0V38c0-0.1,0-0.1,0.1-0.1c0,0,0,0,0,0h5.4c0.1,0,0.2,0,0.2-0.1c0,0,0,0,0,0v-0.6
			c0-0.1,0-0.2-0.1-0.2c0,0,0,0,0,0H1.2c-0.1,0-0.1,0-0.1-0.1c0,0,0,0,0,0v-4.6c0-0.1,0-0.1,0.1-0.1c0,0,0,0,0,0h6.3
			c0.1,0,0.2-0.1,0.2-0.1c0,0,0,0,0,0v-0.6c0-0.1-0.1-0.2-0.1-0.2c0,0,0,0,0,0H0.2c-0.1,0-0.2,0-0.2,0.1c0,0,0,0,0,0v12.4
			C0,43.8,0,43.9,0.2,43.9C0.2,43.9,0.2,43.9,0.2,43.9z"/>
		<path class="st2" d="M16.3,39.2l2.8-4.1c0,0,0-0.1,0-0.1c0,0-0.1-0.1-0.1-0.1h-0.8c-0.1,0-0.2,0.1-0.3,0.2l-2.2,3.2h0L13.5,35
			c-0.1-0.1-0.2-0.2-0.3-0.2h-0.8c0,0-0.1,0-0.1,0.1c0,0,0,0.1,0,0.1l2.8,4.1l-3.1,4.5c0,0,0,0.1,0,0.1c0,0,0.1,0.1,0.1,0.1h0.8
			c0.1,0,0.2-0.1,0.3-0.2l2.5-3.6h0l2.5,3.6c0.1,0.1,0.2,0.2,0.3,0.2h0.8c0,0,0.1,0,0.1-0.1c0,0,0-0.1,0-0.1L16.3,39.2z"/>
		<path class="st2" d="M31.5,40.8c0.1-0.5,0.1-0.9,0.1-1.4c0-0.5,0-0.9-0.1-1.4c0-0.4-0.1-0.8-0.2-1.2c-0.4-1.4-1.6-2.3-3-2.1
			c-0.6,0-1.2,0.1-1.8,0.4c-0.4,0.3-0.7,0.6-1,1.1h0v-1.1c0-0.1-0.1-0.2-0.1-0.2c0,0,0,0,0,0h-0.6c-0.1,0-0.2,0.1-0.2,0.1
			c0,0,0,0,0,0v12c0,0.1,0.1,0.2,0.1,0.2c0,0,0,0,0,0h0.6c0.1,0,0.2-0.1,0.2-0.1c0,0,0,0,0,0v-4.5h0c0.2,0.4,0.5,0.8,1,1.1
			c0.5,0.3,1.2,0.4,1.8,0.4c1.4,0.1,2.7-0.8,3-2.1C31.4,41.5,31.5,41.1,31.5,40.8z M30.5,40.5c0,0.3-0.1,0.7-0.2,1
			c-0.1,0.5-0.4,0.9-0.8,1.2c-0.4,0.3-0.9,0.4-1.5,0.4c-0.5,0-1-0.1-1.4-0.4c-0.4-0.3-0.7-0.7-0.9-1.2c-0.1-0.3-0.2-0.6-0.2-0.9
			c0-0.4-0.1-0.8-0.1-1.2c0-0.4,0-0.8,0.1-1.2c0-0.3,0.1-0.6,0.2-0.9c0.1-0.5,0.4-0.9,0.9-1.2c0.4-0.3,0.9-0.4,1.4-0.4
			c0.5,0,1,0.1,1.5,0.4c0.4,0.3,0.7,0.7,0.8,1.2c0.1,0.3,0.2,0.6,0.2,1c0,0.4,0,0.7,0,1.1S30.5,40.2,30.5,40.5L30.5,40.5z"/>
		<path class="st2" d="M43.5,42.5c0.1-0.1,0.1-0.2,0-0.2c0,0,0,0,0,0L43,41.9c-0.1-0.1-0.2-0.1-0.2,0c0,0,0,0,0,0
			c-0.3,0.3-0.6,0.6-1,0.8c-0.5,0.2-1,0.3-1.5,0.3c-0.6,0-1.1-0.1-1.6-0.4c-0.5-0.3-0.8-0.8-1-1.3c-0.1-0.2-0.1-0.4-0.1-0.7
			c0-0.3-0.1-0.6,0-0.9c0-0.1,0-0.1,0.1-0.1h5.9c0.1,0,0.2-0.1,0.2-0.2c0-0.5,0-1-0.1-1.4c0-0.3-0.1-0.6-0.2-0.9
			c-0.2-0.7-0.7-1.3-1.3-1.7c-0.6-0.4-1.4-0.6-2.1-0.6c-0.7,0-1.5,0.2-2.1,0.6c-0.6,0.4-1,1-1.2,1.7c-0.1,0.3-0.2,0.6-0.2,0.9
			c0,0.5-0.1,0.9-0.1,1.4c0,0.5,0,0.9,0.1,1.4c0,0.3,0.1,0.6,0.2,0.9c0.2,0.7,0.6,1.3,1.2,1.8c0.7,0.4,1.4,0.6,2.2,0.6
			c0.7,0,1.3-0.1,2-0.4C42.7,43.4,43.1,43,43.5,42.5z M37.6,37.9c0-0.2,0.1-0.4,0.1-0.6c0.1-0.5,0.5-1,0.9-1.3
			c0.4-0.3,1-0.4,1.5-0.4c0.5,0,1.1,0.1,1.5,0.4c0.4,0.3,0.7,0.8,0.9,1.3c0.1,0.2,0.1,0.4,0.1,0.6c0,0.2,0,0.5,0,0.7
			c0,0.1,0,0.1-0.1,0.1c0,0,0,0,0,0h-4.9c-0.1,0-0.1,0-0.1-0.1c0,0,0,0,0,0C37.6,38.4,37.6,38.2,37.6,37.9L37.6,37.9z"/>
		<path class="st2" d="M50.3,43.7v-5c0-0.4,0-0.8,0.1-1.2c0.1-0.3,0.2-0.7,0.4-1c0.4-0.6,1-0.9,1.7-0.9c0.3,0,0.5,0,0.8,0.1
			c0.2,0.1,0.5,0.2,0.7,0.3c0.1,0.1,0.2,0.1,0.3,0l0.4-0.5c0.1-0.1,0.1-0.2,0-0.2c-0.2-0.2-0.5-0.4-0.8-0.5c-0.3-0.1-0.7-0.2-1-0.2
			c-0.5,0-1.1,0.1-1.6,0.4c-0.4,0.3-0.7,0.7-0.9,1.1h0v-1.1c0-0.1-0.1-0.2-0.1-0.2c0,0,0,0,0,0h-0.6c-0.1,0-0.2,0.1-0.2,0.1
			c0,0,0,0,0,0v8.6c0,0.1,0.1,0.2,0.1,0.2c0,0,0,0,0,0h0.6C50.2,43.9,50.2,43.8,50.3,43.7C50.3,43.7,50.3,43.7,50.3,43.7z"/>
		<path class="st2" d="M62.4,43.9c0.1,0,0.2,0,0.2-0.1c0,0,0,0,0,0v-0.6c0-0.1,0-0.2-0.1-0.2c0,0,0,0,0,0h-0.4
			c-0.6,0.2-1.3-0.2-1.5-0.9c0-0.2,0-0.4,0-0.6v-5.5c0-0.1,0-0.1,0.1-0.1c0,0,0,0,0,0h1.7c0.1,0,0.2,0,0.2-0.1c0,0,0,0,0,0v-0.5
			c0-0.1-0.1-0.2-0.1-0.2c0,0,0,0,0,0h-1.7c-0.1,0-0.1,0-0.1-0.1c0,0,0,0,0,0v-2.6c0-0.1-0.1-0.2-0.1-0.2c0,0,0,0,0,0h-0.6
			c-0.1,0-0.2,0.1-0.2,0.1c0,0,0,0,0,0v2.6c0,0.1,0,0.1-0.1,0.1c0,0,0,0,0,0h-0.9c-0.1,0-0.2,0.1-0.2,0.1c0,0,0,0,0,0v0.5
			c0,0.1,0,0.2,0.1,0.2c0,0,0,0,0,0h0.9c0.1,0,0.1,0,0.1,0.1c0,0,0,0,0,0v5.6c-0.1,0.7,0.1,1.3,0.5,1.9c0.5,0.4,1.2,0.6,1.8,0.5
			L62.4,43.9z"/>
		<path class="st2" d="M71.5,38.8l-0.9-0.1c-0.6,0-1.1-0.2-1.6-0.5c-0.3-0.2-0.5-0.6-0.5-1c0-0.5,0.2-0.9,0.5-1.2
			c0.5-0.3,1-0.5,1.6-0.4c0.5,0,0.9,0.1,1.4,0.2c0.4,0.1,0.8,0.3,1.1,0.5c0.1,0.1,0.2,0,0.2,0c0,0,0,0,0,0l0.3-0.5
			c0.1-0.1,0.1-0.2,0-0.2c0,0,0,0,0,0c-0.4-0.3-0.8-0.5-1.3-0.6c-0.5-0.2-1.1-0.3-1.7-0.3c-0.8,0-1.7,0.2-2.3,0.7
			c-0.6,0.5-0.9,1.2-0.8,1.9c0,0.6,0.2,1.2,0.7,1.7c0.6,0.4,1.2,0.7,1.9,0.7l0.9,0.1c0.3,0,0.7,0.1,1,0.2c0.2,0.1,0.4,0.2,0.6,0.3
			c0.1,0.1,0.3,0.3,0.3,0.5c0.1,0.2,0.1,0.4,0.1,0.6c0,0.5-0.2,1-0.6,1.3c-0.5,0.4-1.1,0.5-1.8,0.5c-0.6,0-1.1-0.1-1.7-0.3
			c-0.5-0.2-0.9-0.4-1.3-0.7c-0.1-0.1-0.2-0.1-0.3,0c0,0,0,0,0,0l-0.4,0.5c-0.1,0.1-0.1,0.2,0,0.2c0,0,0,0,0,0
			c0.2,0.2,0.4,0.3,0.6,0.4c0.3,0.2,0.5,0.3,0.8,0.4c0.7,0.3,1.4,0.4,2.1,0.4c0.9,0.1,1.8-0.2,2.6-0.8c0.6-0.5,0.9-1.3,0.9-2.1
			c0-0.6-0.2-1.2-0.6-1.7C72.9,39.1,72.2,38.9,71.5,38.8z"/>
		<path class="st2" d="M4.5,53.4H0.2c-0.1,0-0.2,0-0.2,0.1c0,0,0,0,0,0V66c0,0.1,0.1,0.2,0.1,0.2c0,0,0,0,0,0h0.7
			c0.1,0,0.2,0,0.2-0.1c0,0,0,0,0,0v-5.2c0-0.1,0-0.1,0.1-0.1c0,0,0,0,0,0h3.3c1,0.1,2.1-0.3,2.9-1c1.4-1.5,1.4-3.8,0-5.3
			C6.6,53.7,5.5,53.4,4.5,53.4z M6.6,59c-0.6,0.5-1.4,0.7-2.1,0.7H1.2c-0.1,0-0.1,0-0.1-0.1c0,0,0,0,0,0v-5c0-0.1,0-0.1,0.1-0.1
			c0,0,0,0,0,0h3.2c0.8-0.1,1.5,0.2,2.1,0.7c0.5,0.5,0.8,1.2,0.7,1.9C7.4,57.8,7.1,58.5,6.6,59L6.6,59z"/>
		<path class="st2" d="M16.6,57.2c-0.3-0.1-0.7-0.2-1-0.2c-0.5,0-1.1,0.1-1.6,0.4c-0.4,0.3-0.7,0.7-0.9,1.1h0v-1.1
			c0-0.1-0.1-0.2-0.1-0.2c0,0,0,0,0,0h-0.6c-0.1,0-0.2,0-0.2,0.1c0,0,0,0,0,0V66c0,0.1,0,0.2,0.1,0.2c0,0,0,0,0,0H13
			c0.1,0,0.2,0,0.2-0.1c0,0,0,0,0,0v-5c0-0.4,0-0.8,0.1-1.2c0.1-0.3,0.2-0.7,0.4-1c0.2-0.3,0.4-0.5,0.7-0.6c0.3-0.2,0.7-0.3,1-0.2
			c0.3,0,0.5,0,0.8,0.1c0.2,0.1,0.5,0.2,0.7,0.3c0.1,0.1,0.2,0.1,0.3,0l0.4-0.5c0.1-0.1,0.1-0.1,0-0.2c0,0,0,0-0.1,0
			C17.2,57.5,16.9,57.3,16.6,57.2z"/>
		<path class="st2" d="M27.2,59.4c-0.2-0.7-0.7-1.3-1.3-1.7c-0.6-0.4-1.4-0.6-2.1-0.6c-0.7,0-1.5,0.2-2.1,0.6c-0.6,0.4-1,1-1.2,1.7
			c-0.1,0.3-0.2,0.7-0.2,1c-0.1,0.4-0.1,0.9-0.1,1.3c0,0.5,0,0.9,0.1,1.4c0,0.3,0.1,0.7,0.2,1c0.2,0.7,0.6,1.3,1.2,1.7
			c0.6,0.4,1.4,0.6,2.1,0.6c0.8,0,1.5-0.2,2.1-0.6c0.6-0.4,1-1,1.3-1.7c0.1-0.3,0.2-0.7,0.2-1c0.1-0.5,0.1-0.9,0.1-1.4
			c0-0.4,0-0.9-0.1-1.3C27.4,60.1,27.3,59.7,27.2,59.4z M26.4,62.9c0,0.3-0.1,0.6-0.2,0.8c-0.1,0.5-0.5,0.9-0.9,1.2
			c-0.4,0.3-1,0.4-1.5,0.4c-0.5,0-1-0.1-1.5-0.4c-0.4-0.3-0.7-0.7-0.9-1.2c-0.1-0.3-0.2-0.6-0.2-0.8c0-0.4-0.1-0.8-0.1-1.2
			c0-0.4,0-0.8,0.1-1.2c0-0.3,0.1-0.6,0.2-0.8c0.1-0.5,0.5-0.9,0.9-1.2c0.4-0.3,1-0.4,1.5-0.4c0.5,0,1.1,0.1,1.5,0.4
			c0.4,0.3,0.7,0.7,0.9,1.2c0.1,0.3,0.2,0.6,0.2,0.8c0,0.4,0.1,0.8,0.1,1.2C26.4,62.1,26.4,62.5,26.4,62.9z"/>
		<path class="st2" d="M37.7,57.3H37c-0.1,0-0.2,0.1-0.2,0.1c0,0,0,0,0,0v1.1h0c-0.2-0.4-0.5-0.8-0.9-1.1c-1.5-0.9-3.4-0.5-4.3,1
			c-0.2,0.2-0.3,0.5-0.4,0.8c-0.1,0.3-0.2,0.7-0.2,1.1c-0.1,0.9-0.1,1.8,0,2.8c0,0.4,0.1,0.7,0.2,1.1c0.2,0.6,0.6,1.2,1.1,1.6
			c1.1,0.7,2.5,0.7,3.6,0.1c0.4-0.3,0.7-0.6,0.9-1.1h0v1.3c0.1,0.8-0.2,1.5-0.7,2.1c-0.5,0.4-1.2,0.7-1.9,0.6c-0.8,0-1.7-0.3-2.2-1
			c0-0.1-0.1-0.1-0.2-0.1c0,0,0,0,0,0l-0.5,0.4c-0.1,0.1-0.1,0.2,0,0.3c0,0,0,0,0,0c0.3,0.4,0.7,0.7,1.2,0.9
			c0.6,0.3,1.2,0.4,1.8,0.4c1,0.1,1.9-0.3,2.6-0.9c0.7-0.8,1-1.8,0.9-2.8v-8.6C37.9,57.4,37.8,57.3,37.7,57.3
			C37.7,57.3,37.7,57.3,37.7,57.3z M36.8,62.9c0,0.3-0.1,0.6-0.2,0.9c-0.1,0.5-0.4,0.9-0.9,1.2c-0.4,0.3-0.9,0.4-1.4,0.4
			c-1,0.1-1.9-0.6-2.2-1.6c-0.2-0.7-0.3-1.4-0.3-2c0-0.4,0-0.8,0.1-1.2c0-0.3,0.1-0.6,0.2-0.9c0.3-1,1.2-1.6,2.2-1.6
			c0.5,0,1,0.1,1.4,0.4c0.4,0.3,0.7,0.7,0.9,1.2c0.1,0.3,0.2,0.6,0.2,0.9c0,0.3,0,0.7,0,1.2S36.8,62.5,36.8,62.9L36.8,62.9z"/>
		<path class="st2" d="M46.9,57.2c-0.3-0.1-0.7-0.2-1-0.2c-0.5,0-1.1,0.1-1.6,0.4c-0.4,0.3-0.7,0.7-0.9,1.1h0v-1.1
			c0-0.1-0.1-0.2-0.1-0.2c0,0,0,0,0,0h-0.6c-0.1,0-0.2,0-0.2,0.1c0,0,0,0,0,0V66c0,0.1,0,0.2,0.1,0.2c0,0,0,0,0,0h0.6
			c0.1,0,0.2,0,0.2-0.1c0,0,0,0,0,0v-5c0-0.4,0-0.8,0.1-1.2c0.1-0.3,0.2-0.7,0.4-1c0.2-0.3,0.4-0.5,0.7-0.6c0.3-0.2,0.7-0.3,1-0.2
			c0.3,0,0.5,0,0.8,0.1c0.2,0.1,0.5,0.2,0.7,0.3c0.1,0.1,0.2,0.1,0.3,0l0.4-0.5c0.1-0.1,0.1-0.1,0-0.2c0,0,0,0-0.1,0
			C47.5,57.5,47.2,57.3,46.9,57.2z"/>
		<path class="st2" d="M56.2,57.7c-0.3-0.3-0.6-0.4-1-0.5c-0.5-0.1-1-0.2-1.5-0.1c-0.6,0-1.1,0.1-1.7,0.2c-0.4,0.1-0.8,0.3-1.2,0.6
			c-0.1,0-0.1,0.2-0.1,0.2c0,0,0,0,0,0l0.3,0.5c0.1,0.1,0.2,0.1,0.3,0c0.3-0.2,0.6-0.4,0.9-0.5c0.4-0.1,0.9-0.2,1.3-0.2
			c0.4,0,0.8,0,1.1,0.1c0.3,0.1,0.5,0.2,0.7,0.4c0.2,0.2,0.3,0.4,0.4,0.6c0.1,0.3,0.1,0.6,0.1,0.9V61c0,0.1,0,0.1-0.1,0.1
			c0,0,0,0,0,0h-2.3c-0.9-0.1-1.8,0.2-2.5,0.6c-0.6,0.5-0.9,1.2-0.9,2c-0.1,0.8,0.3,1.5,0.8,2c0.6,0.5,1.4,0.7,2.2,0.7
			c0.6,0,1.2-0.1,1.8-0.4c0.4-0.2,0.8-0.5,1-0.9h0V66c0,0.1,0.1,0.2,0.1,0.2c0,0,0,0,0,0h0.6c0.1,0,0.2,0,0.2-0.1c0,0,0,0,0,0v-6
			c0-0.5-0.1-0.9-0.2-1.4C56.7,58.3,56.5,58,56.2,57.7z M56,63.5c0,0.6-0.2,1.1-0.7,1.5c-0.5,0.4-1.2,0.6-1.9,0.5
			c-0.6,0-1.2-0.1-1.6-0.4c-0.4-0.3-0.6-0.8-0.6-1.3c0-0.5,0.2-1,0.6-1.3c0.6-0.3,1.3-0.5,1.9-0.4h2.1c0.1,0,0.1,0,0.1,0.1
			c0,0,0,0,0,0L56,63.5z"/>
		<path class="st2" d="M70.9,57.1c-0.6,0-1.3,0.1-1.8,0.4c-0.5,0.3-0.9,0.7-1.1,1.2h0c-0.5-1.1-1.6-1.8-2.8-1.7
			c-0.6,0-1.1,0.1-1.6,0.4c-0.4,0.2-0.8,0.6-1,1.1h0v-1.1c0-0.1-0.1-0.2-0.1-0.2c0,0,0,0,0,0h-0.6c-0.1,0-0.2,0-0.2,0.1c0,0,0,0,0,0
			V66c0,0.1,0,0.2,0.1,0.2c0,0,0,0,0,0h0.6c0.1,0,0.2-0.1,0.2-0.1c0,0,0,0,0,0v-5.5c0-0.7,0.2-1.4,0.7-1.8c0.5-0.4,1.1-0.7,1.7-0.7
			c1.6,0,2.4,0.9,2.4,2.7V66c0,0.1,0,0.2,0.1,0.2c0,0,0,0,0,0h0.6c0.1,0,0.2-0.1,0.2-0.1c0,0,0,0,0,0v-5.5c-0.1-1.3,0.9-2.4,2.1-2.5
			c0.1,0,0.2,0,0.3,0c1.6,0,2.4,0.9,2.4,2.7V66c0,0.1,0.1,0.2,0.1,0.2c0,0,0,0,0,0h0.6c0.1,0,0.2-0.1,0.2-0.1c0,0,0,0,0,0v-5.5
			c0.1-0.9-0.2-1.8-0.8-2.5C72.6,57.3,71.8,57,70.9,57.1z"/>
		<path class="st2" d="M112.8,30.9h-19c-0.6,0-1-0.4-0.9-0.8l2-10.4c0.1-0.4,0.5-0.7,0.9-0.6h15.1c0.4,0,0.8,0.2,0.9,0.6l2,10.4
			C113.9,30.5,113.4,30.9,112.8,30.9z"/>
		<path class="st2" d="M116.3,47.8l-1.8-10.3c-0.1-0.4-0.5-0.7-0.9-0.7H93c-0.4,0-0.8,0.3-0.9,0.7l-1.8,10.3c0,0.5,0.3,0.9,0.8,0.9
			c0,0,0.1,0,0.1,0h24.1c0.5,0,0.9-0.3,0.9-0.8C116.3,47.9,116.3,47.8,116.3,47.8z"/>
		<path class="st2" d="M89.6,55.3l-1.9,10.3c-0.1,0.5,0.4,0.9,0.9,0.9h29.5c0.6,0,1-0.4,0.9-0.9l-1.9-10.3c-0.1-0.4-0.5-0.7-0.9-0.7
			H90.5C90.1,54.6,89.7,54.8,89.6,55.3z"/>
		<path class="st2" d="M111.2,13.1H95.7c-0.5,0-0.9-0.4-0.9-0.9c0,0,0,0,0,0l-0.9-4c0-0.5,0.4-0.9,0.9-0.9c0,0,0,0,0,0h17.1
			c0.5,0,0.9,0.4,0.9,0.9c0,0,0,0,0,0l-0.7,4C112,12.7,111.7,13.1,111.2,13.1z"/>
		
			<linearGradient id="SVGID_1_" gradientUnits="userSpaceOnUse" x1="56.6751" y1="68.2196" x2="56.6751" y2="67.2196" gradientTransform="matrix(1.398792e-15 -22.844 -63.2 -3.869884e-15 4417.5547 1288.8605)">
			<stop  offset="0" style="stop-color:#FF6724"/>
			<stop  offset="1" style="stop-color:#FFFFFF"/>
		</linearGradient>
		<path class="st3" d="M106.1-5.8l63.2-11.4V5.6L106.1-5.8z"/>
	</g>
</g>
</svg>
