<?xml version="1.0" encoding="utf-8"?>
<!-- Generator: Adobe Illustrator 24.1.0, SVG Export Plug-In . SVG Version: 6.00 Build 0)  -->
<svg version="1.1" id="Layer_1" xmlns="http://www.w3.org/2000/svg" xmlns:xlink="http://www.w3.org/1999/xlink" x="0px" y="0px"
	 viewBox="0 0 100 100" style="enable-background:new 0 0 100 100;" xml:space="preserve">
<style type="text/css">
	.st0{fill:#FF6724;}
	.st1{fill:#0D1319;}
	.st2{fill:url(#SVGID_1_);}
</style>
<g>
	<g transform="translate(184.46 21.325)">
		<path class="st0" d="M-151.2-2c0,4.9-4,8.8-8.8,8.8c-5,0-8.9-4-8.9-8.8s4-8.8,8.8-8.8l0,0C-155.2-10.8-151.2-6.9-151.2-2L-151.2-2
			"/>
	</g>
	<path class="st1" d="M34.1,56.3H14.8c-0.6,0-1-0.4-0.9-0.8l2-10.6c0.1-0.4,0.5-0.7,0.9-0.6h15.3c0.4,0,0.8,0.2,0.9,0.6l2,10.6
		C35.2,55.9,34.7,56.3,34.1,56.3z"/>
	<path class="st1" d="M37.6,73.5L35.8,63c-0.1-0.4-0.5-0.7-0.9-0.7H14c-0.4,0-0.8,0.3-0.9,0.7l-1.8,10.5c0,0.5,0.3,0.9,0.8,0.9h0.1
		h24.5c0.5,0,0.9-0.3,0.9-0.8C37.6,73.6,37.6,73.5,37.6,73.5z"/>
	<path class="st1" d="M10.5,81.1L8.6,91.6c-0.1,0.5,0.4,0.9,0.9,0.9h29.9c0.6,0,1-0.4,0.9-0.9l-1.9-10.5c-0.1-0.4-0.5-0.7-0.9-0.7
		H11.4C11,80.4,10.6,80.6,10.5,81.1z"/>
	<path class="st1" d="M32.5,38.3H16.7c-0.5,0-0.9-0.4-0.9-0.9l0,0l-0.9-4.1c0-0.5,0.4-0.9,0.9-0.9l0,0h17.4c0.5,0,0.9,0.4,0.9,0.9
		l0,0l-0.7,4.1C33.3,37.9,33,38.3,32.5,38.3z"/>
	
		<linearGradient id="SVGID_1_" gradientUnits="userSpaceOnUse" x1="-157.5398" y1="240.7772" x2="-157.5398" y2="241.792" gradientTransform="matrix(1.398792e-15 -22.844 63.2 3.869884e-15 -15189.8457 -3579.7405)">
		<stop  offset="0" style="stop-color:#FF6724"/>
		<stop  offset="1" style="stop-color:#FFFFFF;stop-opacity:0"/>
	</linearGradient>
	<path class="st2" d="M27.3,19.1L91.4,7.5v23.1L27.3,19.1z"/>
</g>
</svg>
