<?xml version="1.0" encoding="utf-8"?>
<!-- Generator: Adobe Illustrator 24.1.0, SVG Export Plug-In . SVG Version: 6.00 Build 0)  -->
<svg version="1.1" id="Layer_1" xmlns="http://www.w3.org/2000/svg" xmlns:xlink="http://www.w3.org/1999/xlink" x="0px" y="0px"
	 viewBox="0 0 100 100" style="enable-background:new 0 0 100 100;" xml:space="preserve">
<style type="text/css">
	.st0{fill:#FFFFFF;}
	.st1{fill:url(#SVGID_1_);}
</style>
<g>
	<g transform="translate(184.46 21.325)">
		<path class="st0" d="M-151.3-2.2c0,4.9-4,8.9-8.9,8.9c-5,0-9-4-9-8.9s4-8.9,8.9-8.9l0,0C-155.3-11-151.3-7.1-151.3-2.2L-151.3-2.2
			"/>
	</g>
	<path class="st0" d="M34,56.4H14.6c-0.6,0-1-0.4-0.9-0.8l2-10.6c0.1-0.4,0.5-0.7,0.9-0.6H32c0.4,0,0.8,0.2,0.9,0.6l2,10.6
		C35.1,56,34.6,56.4,34,56.4z"/>
	<path class="st0" d="M37.6,73.6l-1.8-10.5c-0.1-0.4-0.5-0.7-0.9-0.7h-21c-0.4,0-0.8,0.3-0.9,0.7l-2,10.5c0,0.5,0.3,0.9,0.8,0.9H12
		h24.6C37.1,74.5,37.5,74.2,37.6,73.6C37.6,73.7,37.6,73.6,37.6,73.6z"/>
	<path class="st0" d="M10.3,81.3L8.4,91.8c-0.1,0.5,0.4,0.9,0.9,0.9h30.1c0.6,0,1-0.4,0.9-0.9l-1.9-10.5c-0.1-0.4-0.5-0.7-0.9-0.7
		H11.2C10.8,80.6,10.4,80.8,10.3,81.3z"/>
	<path class="st0" d="M32.4,38.2H16.5c-0.5,0-0.9-0.4-0.9-0.9l0,0l-0.9-4.1c0-0.5,0.4-0.9,0.9-0.9l0,0H33c0.5,0,0.9,0.4,0.9,0.9l0,0
		l-0.7,4.1C33.2,37.8,32.9,38.2,32.4,38.2z"/>
	<linearGradient id="SVGID_1_" gradientUnits="userSpaceOnUse" x1="27.2064" y1="18.95" x2="91.6064" y2="18.95">
		<stop  offset="0" style="stop-color:#FFFFFF"/>
		<stop  offset="1" style="stop-color:#FFFFFF;stop-opacity:0"/>
	</linearGradient>
	<path class="st1" d="M27.2,18.9L91.6,7.3v23.3L27.2,18.9z"/>
</g>
</svg>
