<svg version="1.1" id="Layer_1" xmlns="http://www.w3.org/2000/svg" xmlnsXlink="http://www.w3.org/1999/xlink" x="0px" y="0px" viewBox="0 0 324.2 338.9" enableBackground="new 0 0 324.2 338.9" xmlSpace="preserve">
                        <g>
                            <path fill="#121212" d="M7.3,169.4C7.3,84.3,76.8,14.7,162,14.6c85.3-0.1,155.2,69.8,154.9,155c-0.2,85.3-69.8,154.7-154.9,154.6
                                C76.9,324.1,7.3,254.6,7.3,169.4z M302.1,169.4c0-77.2-62.7-139.9-139.9-140C85.1,29.3,22.3,92,22.1,169.2
                                C22,246.5,84.9,309.5,162.2,309.4C239.4,309.4,302.1,246.6,302.1,169.4z"/>
                            <path fill="#FE6723" d="M58.9,33c0,14.3-11.3,25.7-25.6,25.8C19,58.8,7.2,47.2,7.3,32.9C7.4,18.8,19.1,7.2,33.2,7.3
                                C47.3,7.3,58.8,18.8,58.9,33z M33.3,22c-5.9-0.1-11,4.9-11.1,10.8c-0.1,6.1,5,11.3,11.1,11.3c6,0,10.9-5,10.9-11
                                C44.1,27.1,39.2,22.1,33.3,22z"/>
                            <path fill="#FE6723" d="M280.2,338.9C268,339,258,329.1,257.9,317c-0.1-12.2,9.7-22.1,21.9-22.3c12.1-0.1,22.2,9.8,22.2,22
                                C302.2,328.9,292.4,338.8,280.2,338.9z M272.8,316.8c0,4.1,3.3,7.4,7.3,7.4c4,0,7.2-3.3,7.2-7.4c0-4.1-3.2-7.4-7.3-7.4
                                C276,309.5,272.8,312.7,272.8,316.8z"/>
                            <path fill="#121212" d="M316.8,81c-4-0.1-7.3-3.5-7.2-7.5c0.1-4,3.5-7.3,7.4-7.3c4,0.1,7.3,3.5,7.2,7.5
                                C324.2,77.7,320.7,81.1,316.8,81z"/>
                            <path fill="#FE6723" d="M7.2,272.6c-4-0.1-7.3-3.5-7.2-7.5c0.1-4,3.5-7.3,7.5-7.3c4,0.1,7.3,3.5,7.2,7.5
                                C14.6,269.4,11.2,272.7,7.2,272.6z"/>
                            <path fill="#121212" d="M324.2,265.3c-0.1,4-3.5,7.4-7.4,7.3c-4-0.1-7.3-3.5-7.2-7.5c0-4,3.4-7.3,7.4-7.3
                                C320.9,257.9,324.3,261.3,324.2,265.3z"/>
                            <path fill="#121212" d="M58.9,324.3c-0.1,4.1-3.5,7.3-7.5,7.2c-4-0.2-7-3.3-7-7.3c0-4.1,3.3-7.4,7.4-7.3
                                C55.7,316.9,58.9,320.2,58.9,324.3z"/>
                            <path fill="#FE6723" d="M272.7,7.2c0,4-3.3,7.4-7.4,7.3c-4.1,0-7.4-3.3-7.3-7.4c0.1-3.9,3.2-7.1,7.2-7.2
                                C269.2-0.1,272.6,3.1,272.7,7.2z"/>
                            <path fill="#121212" d="M14.7,81c0,4-3.4,7.4-7.3,7.4C3.4,88.3,0,85,0,81c0-4,3.4-7.3,7.4-7.3C11.4,73.6,14.7,76.9,14.7,81z"/>
                            <path fill="#121212" d="M162.2,287.3c-64.7,0.3-117.5-52.4-118-117.6C43.7,105,96.8,51.7,162,51.5c64.9-0.2,118.2,53.1,118,118
                                C279.9,234.5,227.3,287.1,162.2,287.3z M169.5,78.6c0,3,0,6,0,9c0,0.2,0,0.5,0,0.7c-0.3,4.1-2.7,6.7-6.7,7.3
                                c-1.4,0.2-2.7,0.2-4.1,0.3c-30.8,2.4-52.4,17.8-64.9,46.1c-3.8,8.7-5.1,17.9-5.5,27.3c-0.2,4.7-3.5,7.7-7.6,7.5
                                c-4.1-0.2-6.9-3.4-7-8.1c-0.1-5.4,0.6-10.7,1.5-16c6.4-36.3,38.6-66.8,74.7-70.8c3.8-0.4,4.9-1.6,4.8-5.4
                                c-0.3-10.6-0.2-10.9-10.5-8.7c-42.5,9-71.1,34.2-81.9,76.3c-10.7,41.9,2.2,77.6,35.1,105.6c14.9,12.7,32.5,19.6,51.9,22.2
                                c5.3,0.7,5.3,0.7,5.3-4.7c0-4.6,0-9.2,0-13.8c0-7.8,2.1-10.1,9.9-10.3c9.2-0.3,18.1-2,26.5-5.9c27.5-12.8,42.5-34.4,44.6-64.7
                                c0.1-1.7,0.1-3.5,0.6-5.2c0.9-3.3,4.4-5.5,7.8-5.1c4,0.5,6.4,3.6,6.5,8.2c0.4,40.8-30.8,78.2-71.3,85.9c-3.1,0.6-7.6-0.4-9.1,2
                                c-1.5,2.4-0.3,6.5-0.6,9.9c-0.4,3.7,1.2,4.5,4.4,3.9c3.4-0.6,6.9-0.9,10.3-1.8c43.2-11.2,71-38.4,79.1-82.2
                                c8-43.3-7.9-78.3-43.6-104c-13.7-9.9-29.4-15.1-46.1-17.1c-3-0.4-4.4,0.1-4,3.5C169.8,73.1,169.5,75.8,169.5,78.6z"/>
                            <path fill="#FE6723" d="M228.6,145.4c-0.2,5.6-2.2,10.8-6.4,15.1c-24.1,24.2-48.3,48.4-72.5,72.5c-3.7,3.7-7.8,3.7-11.5,0
                                c-12-12-24.1-23.9-36-36c-8.8-9-8.6-22.6,0.2-31.2c8.7-8.6,22.3-8.4,31.3,0.3c2.7,2.6,5.4,5.2,7.9,8c1.7,2,2.8,1.9,4.6,0.1
                                c13.4-13.6,27-27,40.4-40.5c4.2-4.3,8.4-8.5,14.6-10C215.1,120.2,228.6,130.7,228.6,145.4z M117.7,174.1c-0.3,0.1-0.8,0.1-1.3,0.2
                                c-2.8,0.7-4.6,2.3-5.5,5c-1.1,3.3,0.3,5.8,2.5,8.1c9.3,9.4,18.8,18.6,28,28.1c2.2,2.3,3.3,1.8,5.2-0.2
                                c21.1-21.2,42.3-42.4,63.5-63.5c0.8-0.8,1.6-1.6,2.3-2.5c2.2-3,1.9-7-0.7-9.5c-2.5-2.5-6.6-2.8-9.6-0.7c-1.1,0.8-2,1.8-3,2.8
                                c-16.3,16.3-32.6,32.6-49,48.9c-4.3,4.3-8,4.3-12.3,0.1c-4.7-4.6-9.4-9.3-14-14C122.2,175.3,120.3,174.2,117.7,174.1z"/>
                        </g>
                    </svg>